<?xml version="1.0" encoding="UTF-8" standalone="no"?>
<!-- Created with Inkscape (http://www.inkscape.org/) -->

<svg
   xmlns:dc="http://purl.org/dc/elements/1.1/"
   xmlns:cc="http://creativecommons.org/ns#"
   xmlns:rdf="http://www.w3.org/1999/02/22-rdf-syntax-ns#"
   xmlns:svg="http://www.w3.org/2000/svg"
   xmlns="http://www.w3.org/2000/svg"
   xmlns:sodipodi="http://sodipodi.sourceforge.net/DTD/sodipodi-0.dtd"
   xmlns:inkscape="http://www.inkscape.org/namespaces/inkscape"
   version="1.1"
   id="svg2"
   width="666.66669"
   height="717.33331"
   viewBox="0 0 666.66669 717.33331"
   sodipodi:docname="belly-dance.svg"
   inkscape:version="0.92.5 (2060ec1f9f, 2020-04-08)">
  <metadata
     id="metadata8">
    <rdf:RDF>
      <cc:Work
         rdf:about="">
        <dc:format>image/svg+xml</dc:format>
        <dc:type
           rdf:resource="http://purl.org/dc/dcmitype/StillImage" />
        <dc:title></dc:title>
      </cc:Work>
    </rdf:RDF>
  </metadata>
  <defs
     id="defs6" />
  <sodipodi:namedview
     pagecolor="#ffffff"
     bordercolor="#666666"
     borderopacity="1"
     objecttolerance="10"
     gridtolerance="10"
     guidetolerance="10"
     inkscape:pageopacity="0"
     inkscape:pageshadow="2"
     inkscape:window-width="1501"
     inkscape:window-height="968"
     id="namedview4"
     showgrid="false"
     inkscape:zoom="1"
     inkscape:cx="403.55419"
     inkscape:cy="316.94402"
     inkscape:window-x="0"
     inkscape:window-y="0"
     inkscape:window-maximized="0"
     inkscape:current-layer="layer3" />
  <g
     inkscape:groupmode="layer"
     id="layer3"
     inkscape:label="Layer 1"
     style="display:inline">
    <path
       style="fill:#f36109;stroke-width:1.33333337;fill-opacity:1"
       d="m 420.61084,662.16665 c -5.38586,-11.06832 -13.50317,-41.56016 -20.51195,-47 -0.81878,2.64059 0.18238,11.37014 -2.8818,15.54457 -15.75544,0.52252 -43.06807,-27.46367 -51.34329,-37.8654 -5.39286,-9.53862 -13.43669,-3.01542 -14.92061,-1.67276 -2.93487,2.80472 -5.50468,3.99359 -8.6324,3.99359 -5.79774,0 -8.01503,-3.95966 -7.37694,-13.17383 0.53149,-7.67491 -0.37907,-8.25145 -7.32145,-4.63579 -7.69948,4.54393 -14.59419,4.47628 -22.98196,4.47628 -14.39696,27.60428 -4.08084,56.6191 6.26513,77.64858 2.45645,4.82886 0.96727,4.13197 -4.82799,-2.25932 -8.78585,-9.97402 -16.47724,-22.53595 -20.25501,-34.05592 -12.10195,-46.19457 8.86454,-76.95554 38.79971,-97.91451 21.65085,-10.59542 27.83125,-37.17929 9.37213,-37.48549 -12.32374,-0.50217 -17.28336,12.13705 -28.06872,15.92273 -3.63883,1.13222 -7.17568,-3.9353 -7.17568,-10.28112 0,-2.97117 -1.14076,-5.74978 -3.33071,-8.11277 -3.96796,-7.03839 -18.49153,5.93828 -22.79597,10.01528 -4.15709,4.60028 -14.57817,9.19057 -20.829,9.17479 -15.15802,-0.0383 -29.56344,-8.34306 -34.6129,-19.95438 -5.6511,-12.99481 -1.09474,-25.45683 14.70098,-40.20829 9.74217,-9.0981 10.01185,-9.52182 10.60383,-16.66025 0.86808,-10.46785 -1.29466,-12.55548 -23.73623,-22.912 -5.95591,-2.74859 -16.14852,-9.49207 -18.40883,-12.17939 -9.92421,-11.79901 -16.29788,-26.58378 -16.21348,-37.60981 0.0551,-7.18464 2.37065,-10.00524 12.17644,-14.83161 16.37812,-8.77802 18.73784,-16.11705 23.87988,-30.96317 8.64997,-24.65152 12.84002,-31.85786 34.8863,-43.38691 5.0447,-2.60313 6.17896,-3.80143 5.61998,-5.93722 -3.82038,-14.5975 -12.80377,-45.00575 -13.95472,-47.23594 -1.09808,-2.12777 -5.37082,-11.47736 -10.55968,-23.1066 -3.01496,-6.75712 -5.56955,-7.85613 -10.17105,-4.37573 -6.63474,4.12815 -7.41078,0.45672 -6.90972,-4.09637 0.72316,-5.75111 3.43208,-9.84504 6.72498,-14.29894 l -2.44201,-7.1843 c -1.34311,-3.95136 -2.95032,-7.49844 -3.57157,-7.8824 -0.62127,-0.38396 -3.66314,0.48175 -6.75971,1.92379 -5.68497,2.64742 -14.29681,4.75591 -14.29681,3.50038 0,-2.30421 5.14252,-7.70825 10.77412,-11.32204 3.60757,-2.31497 6.55921,-4.93961 6.55921,-5.83253 0,-0.89292 -0.95316,-4.42087 -2.11815,-7.8399 -2.8924,-8.48874 -1.67729,-10.96472 1.37646,-2.80474 4.1042,13.32154 8.41516,6.72255 11.40836,9.73491 -1.22576,2.31106 -6.39495,2.38513 -4.71528,5.39922 5.39185,0.69481 9.34957,-3.69858 15.04861,-3.89206 2.79757,-0.0273 3,-0.60878 3,-8.61726 -0.88843,-7.65963 3.67933,-12.83324 6.34175,-18.40144 3.54008,-7.45165 3.96568,-9.71925 3.97999,-21.20514 C 230.42058,79.87877 231.0429,76.5 233.31633,76.5 c 0.31925,7.658756 -0.79685,16.614689 -0.34825,24.16613 0.80281,12.76844 0.78591,12.86327 -3.37223,18.9069 -2.32245,3.37557 -4.16025,7.74444 -4.13669,9.83387 0.0463,4.10282 2.68011,8.42643 5.13317,8.42643 2.58775,0 4.6581,6.01403 3.04819,8.85445 -1.16023,2.04704 -0.51228,3.40799 3.7194,7.81222 5.25455,5.46878 7.85171,9.0123 21.01072,28.66666 10.26548,15.33255 11.49583,17.45112 18.39016,31.66667 3.28981,6.78333 6.56256,12.33333 7.27275,12.33333 9.0472,-6.36454 21.56716,-11.24607 30.35345,-14.79802 26.3556,-4.71279 50.5593,4.25518 63.75124,21.55151 7.48532,10.73318 10.65744,-0.58489 4.27852,-6.6204 -11.99872,-10.93757 -39.23525,-38.54324 -40.91194,-41.46642 -5.42407,-9.4564 -5.78282,-10.95356 -5.07131,-21.16367 6.45799,-25.26175 11.46785,-44.42051 7.30049,-67.503 -1.59819,-6.94597 2.21538,3.13809 3.3721,5.33241 5.76499,35.08034 -4.58545,42.69701 -7.99739,65.11504 0.34293,16.71415 18.33203,26.73251 27.78633,35.9056 9.97974,9.70582 20.49899,19.74695 23.37615,22.31362 11.17425,9.96838 11.89767,13.41057 5.57716,26.53754 -4.14012,8.59855 -4.22791,9.16953 -3.91485,25.46245 0.17612,9.16667 -0.28006,18.16667 -1.01374,20 -1.047,2.61626 -1.35916,0.75186 -1.45108,-8.66666 -0.1028,-10.53942 -1.36022,-19.9852 -3.43658,-25.81683 -1.92361,-2.18725 -4.44985,0.86542 -6.94867,1.49943 -4.26133,1.0432 -3.81153,-1.77124 1.10536,-6.91629 l 4.10536,-4.29587 c -4.18097,-9.28825 -12.29299,-17.81046 -19.45017,-20.61889 -3.99877,-0.0906 1.77924,6.84508 2.38774,9.12814 -0.84443,15.16622 -21.64812,10.11837 -21.77261,-0.64636 -12.68526,-6.9466 -25.31566,25.20595 -25.17081,35.54287 0.26377,15.43546 2.73552,21.38597 13.06677,31.45713 12.96159,12.63528 27.49971,17.36407 39.96697,13 7.19059,-2.51701 9.60751,-5.34843 14.5113,-17 1.3066,-3.10455 1.40908,-2.96231 1.49313,2.07229 0.0639,3.82483 -1.07951,7.25012 -3.90976,11.71298 -2.68652,4.2362 -4.04657,8.15289 -4.14184,11.9277 -0.13753,5.44986 -0.1858,5.50912 -1.59072,1.9537 -22.30426,-14.45509 -8.83977,7.99544 -6.2438,18.43881 2.04637,9.13135 -1.22917,23.13386 -6.6812,28.56118 -6.20731,9.04406 -18.50418,19.66446 -18.67577,30.66667 -0.25345,9.58719 10.3245,16.41897 14.53801,19.83448 7.36331,5.95347 10.09116,11.15485 7.95981,15.17756 -0.8707,1.64337 -2.6889,3.95833 -4.04046,5.14436 -6.05143,8.01653 3.65341,10.10869 10.2093,10.71261 1.46667,0.11947 -1.53333,0.61139 -6.66666,1.09314 -10.47751,0.98329 -14,-0.59279 -14,-6.26404 5.88019,-11.85044 19.33615,-14.59232 -2.66667,-23.13399 -15.21496,-7.55745 -15.35129,-17.84434 -16.82391,-23.55134 -0.52481,-19.33611 16.12005,-30.60315 16.82391,-47.44963 0,-6.37264 -0.78967,-9.2854 -4.07321,-15.02445 -5.27399,-9.21796 -12.43516,-15.91564 -21.4046,-20.0192 -14.9791,-13.10469 -20.5545,-18.11831 -30.59079,-49.18616 -3.17665,-11.30859 -7.93059,-22.61088 -11.95238,-33.33333 -6.39973,-17.1085 -23.6899,-46.4348 -33.74432,-57.2346 -8.89496,-9.55438 -19.95244,-25.00842 -21.59369,-30.17955 -1.23812,-3.90098 -3.28017,-3.17517 -11.2526,3.99959 -6.97868,6.28044 -7.20356,6.68958 -5.46366,9.94064 1.70799,3.19141 2.26183,3.34385 9.42741,2.5949 4.92128,-0.51438 7.9335,-0.27678 8.5199,0.672 0.82863,1.34078 -5.28128,16.20702 -6.66096,16.20702 -0.78752,-3.16257 5.93681,-14.35161 1.5183,-14.66667 -11.38628,1.63928 -8.54171,11.7904 -5.31274,16.91667 12.90617,29.08784 28.44613,42.1583 35.88598,71.26199 1.16736,4.6684 2.62164,9.688 3.23173,11.15467 3.974,17.18688 7.64055,31.95851 12.13209,47.33333 5.58328,19.17527 17.03255,39.60578 29.257,52.20728 8.92774,9.20311 11.59027,13.14251 14.52382,21.48895 1.48776,4.23296 6.32433,12.32825 11.09511,18.57064 10.02538,16.25582 34.90404,50.4009 29.12428,65.45279 -6.22158,1.62698 -0.42862,16.947 6.40817,16.947 4.5866,0 6.14092,-3.57396 5.80505,-13.34794 -1.65835,-16.02787 9.6254,-10.02136 15.20262,-3.67234 7.10552,8.28864 10.03212,12.30122 12.08073,16.56347 2.01189,4.18588 1.97731,4.27764 -6.06991,16.10715 -5.10579,3.4082 -6.83274,15.72825 -9.09333,18.99982 -20.60781,-21.14325 20.04028,-27.26008 9.22835,-39.11017 -4.48519,-4.05904 -8.6066,-2.73792 -15.9933,5.12668 -7.41826,7.89823 -11.11722,9.02115 -17.56838,5.33333 -14.45967,-5.98776 -22.41599,21.79979 -24.00618,30.9277 -6.35055,18.30746 17.31647,8.48718 9.49223,18.37929 12.69683,10.50955 48.24864,50.67743 54.03124,26.02634 5.03921,-33.95986 24.99207,-64.78997 38.71004,-90.66666 7.64197,-14.48482 12.13516,-31.30668 14.04083,-46.6622 l -32.46741,0.83488 c -25.58679,0.65794 -32.14338,0.48884 -30.93837,-0.79796 0.84098,-0.89805 4.59666,-1.60906 8.34595,-1.58002 27.18957,-3.9629 74.32806,-8.9809 77.50704,-40.87014 0.96591,-19.3308 -13.28665,-24.94398 -24.79709,-28.33096 -13.52076,-3.96576 -17.39101,-6.15357 -27.06391,-15.29895 -6.56414,-6.09866 -10.73371,-19.28723 -10.85437,-27.8806 2.29853,-17.94971 9.1222,-34.21368 16,-50.74738 4.52428,-12.57228 12.51243,-29.74259 13.33333,-42.28821 -1.97684,-14.10619 -26.54503,-31.27624 -38,-37.08376 -10.86068,-6.36846 -21.74514,-11.88444 -31.66667,-18.12914 -12.44614,-7.46349 -3.54601,-18.30796 3.9169,-34.03988 -0.69069,8.42564 -7.61167,17.98946 -5.59185,27.49962 19.3277,20.91604 44.18656,23.6016 65.25569,42.59323 5.92416,5.37767 10.80516,10.05501 11.714,18.16667 0.45554,4.06583 -2.05059,12.75285 -6.83619,25.94814 -9.11927,19.29606 -17.60176,36.50814 -18.9612,53.62915 1.85767,9.24998 7.50876,15.05862 18.03028,18.5329 12.2317,4.03898 13.11482,5.06932 12.33622,14.39275 -0.37259,4.46153 -1.07002,10.23337 -1.54984,12.82633 -0.9344,5.04943 -1.46068,4.5273 9.86008,9.7824 10.4758,6.52309 18.72232,14.136 18.82592,26.28223 0,8.68538 -1.63298,15.15049 -7.04394,27.88757 -5.43053,13.10444 -9.77636,27.72799 -15.62273,39.33333 -5.83549,11.09345 -5.55252,12.00476 3.76703,12.13137 25.04766,3.77483 33.54721,16.6414 24.27473,42.5353 -8.90506,14.46319 11.85983,17.90964 11.95824,24.10393 -2.73421,0.56754 -7.9159,-1.95215 -13.22628,-3.06008 -16.98019,-8.65322 -6.57077,-24.73592 -6.57372,-30.55292 4.11734,-14.50718 -6.82366,-24.46039 -12.78861,-22.49093 -1.99063,0 -1.13047,5.80472 1.20644,8.14162 2.59532,2.59534 4.66085,10.38588 3.75412,14.15944 -4.66207,11.39455 -30.31421,21.11983 -31.03862,31.03227 0,3.29703 0.1248,3.33333 11.46084,3.33333 11.71616,0 16.64848,1.78499 21.53916,7.79492 2.96378,3.64204 1.29746,12.06643 -3,15.1671 -5.8086,3.05079 -4.01191,7.55612 1.32827,7.70465 4.65753,0 12.86039,5.203 8.3384,5.28897 -13.1219,-7.04696 -20.17807,3.98619 -19.76432,-11.28897 -5.66205,-18.58935 -30.24774,0.56704 -38.14619,-7.88508 -3.89361,-4.19908 -4.17279,-12.09437 -0.56677,-16.02899 1.92315,-2.33296 6.57006,-12.78402 1.71076,-10.21089 -3.22219,1.72447 -9.34867,13.74756 -10.44372,20.4956 -1.52792,9.41545 0.94287,27.7519 10.01464,41.87632 20.34857,42.16452 9.28122,80.0798 4.72309,68.75304 z m -23.2979,-50.69292 c -0.32977,-8.18019 -3.03883,-30.95985 -5.67934,-12.53275 -1.02164,7.52745 -1.39269,8.22567 -4.37135,8.22567 -5.66277,0 -18.50124,-7.51752 -24.65093,-14.43428 -5.18357,-5.83014 -8.38479,-11.18632 -13.68597,-22.89906 -1.59518,-3.73371 -4.63639,-8.60323 -6.82514,-11.52989 -5.36921,-4.61476 -11.44052,0.40411 -7.5755,4.86323 16.43222,21.5578 25.66397,36.33551 46.06493,49.41229 4.2943,2.79043 13.40049,6.62208 16.7233,-1.10521 z M 326.78667,588.8999 c 28.33841,-28.19629 -17.00098,-27.7677 -7.74492,-0.95877 1.73933,3.81744 3.30542,4.01132 7.74492,0.95877 z m -24.03666,-12.81391 c 6.86723,-3.10234 13.0902,-8.15864 19.03423,-12.1793 4.84104,-3.17197 4.5782,-6.11761 -0.99869,-11.19247 -11.55596,-12.57639 -34.00743,18.7993 -33.28711,26.58472 1.1179,1.80881 7.84185,0.39233 15.25157,-3.21295 z m 27.50654,-29.19849 c -9.14524,-7.2971 -17.42026,-1.90843 -7.1732,5.40916 10.36528,7.67882 13.70012,0.30045 7.1732,-5.40916 z m -84.07797,-58.95894 c 5.82591,-5.71477 2.57407,-16.25706 7.65443,-21.74967 1.83944,-1.83945 2.52247,-1.79186 6.75823,0.47076 2.59158,1.38435 7.5875,5.26075 11.10204,8.61421 6.72337,6.41523 11.00168,8.30206 15.98733,7.05074 3.65897,-0.91835 7.0694,-7.32031 7.0694,-13.27051 1.71936,-13.11644 15.74151,-15.54858 23.66667,-13.1629 6.36412,0.095 -5.26175,-9.00111 -9.19072,-9.47324 -8.26516,-0.9437 -9.99071,0.18862 -17.16886,11.26638 -6.90688,10.65915 -12.87046,10.58916 -32.59592,-0.38252 -4.61558,-2.56728 -15.60177,-13.29558 -18.87505,-18.432 -3.76305,-8.74322 -5.20453,-22.9838 -1.66761,-32.63042 3.71931,-10.94949 11.00021,-20.45581 16.30188,-30.06059 3.05153,-5.56063 2.94157,-9.61068 1.502,-12.83022 -7.32622,-8.53126 -11.84106,-10.66656 -25.66504,-18.07438 -4.81099,-3.37623 -7.46195,-9.2963 -6.4887,-14.37225 1.14534,-5.97348 7.37826,-17.81785 11.84802,-22.51472 3.65173,-3.45941 6.45897,-10.26956 11.02176,-11.63325 0.28974,0.28974 -0.39319,3.19712 -1.51763,6.46084 -2.23351,6.48277 -1.72327,13.71874 1.68933,23.95765 4.9763,13.63605 13.9594,26.74767 20.13987,38.36869 7.08478,13.81221 2.57532,16.51067 -5.05622,25.30216 -8.6463,14.80162 0.61488,32.18965 11.59446,44.70877 14.02319,10.60521 37.72425,0.16713 40.46176,-10.76504 1.55826,-3.48086 -14.0958,0.62078 -17.04564,0.76026 -9.60813,0.43196 -13.41416,0.0653 -17.00372,-1.63804 -9.1009,-5.83471 -16.27771,-20.06898 -5.67757,-23.94399 7.85298,-3.10587 10.30734,-5.64884 12.03147,-10.41682 2.09443,-7.94895 -8.68487,-31.10812 -13.96294,-37.27324 -0.92121,-0.97631 -4.81411,-5.2594 -8.65087,-9.51796 -6.4476,-7.15642 -7.94398,-9.6127 -12.17002,-19.97667 -1.78519,-4.37801 -2.02175,-17.29184 -0.37776,-20.62203 0.62862,-1.27338 2.18708,-4.30678 3.46324,-6.74088 2.69353,-5.13754 2.5623,-5.41777 -2.67604,-5.71438 -5.67483,-0.32132 -10.21328,1.90068 -14.67932,7.1869 -21.02034,24.88071 -27.56241,31.83072 -33.9175,36.03252 -36.95318,25.11427 0.47552,38.33167 19.80771,52.58727 18.49984,21.21811 2.56821,59.47068 -1.14104,79.81609 -0.5577,17.40792 16.21393,29.00288 23.42857,22.61248 z M 361.43701,342.53618 c -3.18438,-5.66954 -16.66165,-19.26132 -26.72048,-26.94752 -11.81551,-9.48751 -17.0198,-18.49532 -22.47557,-30.62934 -3.97582,-8.22728 -7.69596,-16.72478 -11.33298,-24.79266 -5.46453,-12.11953 -9.69348,-9.34059 -4.56534,3 8.92749,25.77278 21.64846,45.78798 37.15633,58.64617 14.29476,11.78804 22.11295,20.73887 23.7325,27.17064 1.19839,19.62462 13.4052,12.54675 4.20554,-6.44729 z m 2.59323,-95.9722 c 3.06027,-3.68739 -1.94236,-12.73065 -7.04243,-12.73065 -7.48016,-5.14607 -13.43457,-13.57539 -23.82512,-17.44832 -3.42948,-1.18251 -5.81877,-1.29591 -7.88432,-0.37424 -2.70217,1.20574 -2.09153,1.76709 6.92066,6.36196 10.7924,5.50252 21.84646,14.12726 18.10646,14.12726 -8.30493,9.94658 9.04507,14.91994 13.72472,10.06399 z M 206.83766,180.45309 c 3.01119,-1.61155 3.48473,-6.61976 0.62592,-6.61976 -1.94279,0 -4.71357,3.86736 -4.71357,6.57901 0,1.77761 0.82688,1.78585 4.08765,0.0408 z M 219.28906,144.5 c -6.01745,0 -13.87239,3.3178 -13.87239,5.85948 0,3.33096 3.4042,10.14051 5.0694,10.14051 11.27932,-5.27738 19.87378,-15.89276 8.80299,-15.99999 z m -28.20572,2.59141 c -4.71964,3.93728 -3.74807,5.75693 1.82949,3.42648 9.21363,-1.51205 4.77078,-8.32855 -1.82949,-3.42648 z m 209.62511,269.8432 c -2.22392,-2.2239 -2.21112,-3.76912 0.12227,-14.76796 1.42417,-6.71312 -1.91091,-5.37384 -8.08069,3.24499 -6.02606,8.41805 -9.11187,11.17881 -15.10808,13.14669 -13.69635,-0.36745 -0.69855,-17.17803 0.14356,-18.27921 8.70881,-11.2691 18.42091,-22.85013 32.29784,-23.82351 17.71603,-3.63714 23.4917,15.95567 35.84552,16.04438 7.36305,0 10.12307,-2.901 10.2482,-10.77166 0.18033,-11.34418 2.38119,-1.12057 2.47923,11.51682 0.11146,14.36718 -1.29971,17.37256 -7.51622,16.00718 -4.10232,-0.90102 -20.67101,-10.89914 -21.50117,-12.97457 -1.40185,-3.50461 -9.58645,4.37419 -13.68743,13.176 -4.17121,8.9526 -10.61088,12.113 -15.24303,7.48085 z m -17.87506,-4.76958 c 3.21428,-2.08914 21.04963,-21.53252 14.66706,-26.33171 -2.44998,0 -24.08377,22.4488 -24.08377,24.99108 0,5.24768 4.27155,5.85581 9.41671,1.34063 z m 35.8014,-13.77248 c 5.08687,-4.53243 5.22416,-7.43336 0.44856,-9.47852 -7.28075,-3.11802 -8.5504,-2.76888 -10.61626,2.91929 -1.76401,5.67971 -6.55561,22.41029 -2.99021,23.33333 6.62274,-3.9817 7.76781,-11.86161 13.15791,-16.7741 z M 338.08335,275.40907 c -4.33082,-0.48463 -8.0143,-2.90908 -4.41978,-2.90908 6.42403,-0.78645 11.66232,-6.13842 19.08644,-2.66723 3.76651,1.4326 3.84632,1.60742 1.36734,2.99476 -3.44147,1.92598 -11.00707,3.14408 -16.034,2.58155 z M 181.86686,93.3504 c 7.26545,9.55896 9.06741,20.86874 9.48668,27.73293 -2.50636,-8.16032 -4.86052,-14.07031 -9.48668,-27.73293 z m 37.15244,0.55578 c 0.12276,-14.05394 1.00396,-19.46734 -4.43327,-34.12384 -4.86066,-11.18561 -9.44586,-11.93115 -17.9243,-16.75852 -1.03591,-1.67614 2.92406,-0.76986 9.42161,2.15622 13.46366,7.124872 16.46779,24.772198 17.96102,45.52083 -3.36665,10.53142 -3.33818,10.51326 -5.02506,3.20531 z m -36.26068,-5.73952 c -3.79363,-3.11666 -9.09751,-7.38628 -11.78639,-9.48804 -8.1798,-6.3937 0.40295,-2.8664 9.69476,3.98431 9.66879,7.12864 12.33371,7.41032 13.45704,1.42241 0.97911,-5.21906 0.14454,-26.81044 -1.22085,-31.58534 l -0.95317,-3.33334 c 6.05496,8.222063 8.00358,24.559484 6.36856,34 -1.25171,6.26542 -4.1354,10.66667 -6.98882,10.66667 -0.92049,0 -4.77749,-2.55 -8.57113,-5.66667 z"
       id="path817"
       inkscape:connector-curvature="0"
       sodipodi:nodetypes="cccccssccccccccscccsssccccccccsccccccsssccccccccccccsccssccccccccccsscscccscccccssccccccccccccsccccccccssscccccccccscccscccccccccccccscccccccccccccsccscccccccccccccccsccccccccccccccssccccccccccccccccccsscccccscccccscccccccccccccssssssccccccccccccccccsccccsscccscccccccscccccsscccccsccccccscccscccccccccccscsccsc" />
    <rect
       style="opacity:0;fill:#ff0000;fill-opacity:1;stroke:#f5a037;stroke-opacity:1"
       id="rect835"
       width="638"
       height="640"
       x="1"
       y="22.333313" />
    <rect
       style="opacity:0;fill:#ff0000;fill-opacity:1;stroke:#f5a037;stroke-opacity:1"
       id="rect839"
       width="505"
       height="628"
       x="56"
       y="33.333313" />
    <path
       style="opacity:0;fill:#ff6600;fill-opacity:1;stroke:#f5a037;stroke-opacity:1"
       d="m 419.75162,658.93554 c -0.93641,-2.33544 -4.02646,-10.54625 -6.86679,-18.24625 -7.05791,-19.13368 -10.81817,-26.30558 -13.06429,-24.9174 -0.47649,0.29449 -0.86635,2.50458 -0.86635,4.91132 0,2.40673 -0.45952,5.58452 -1.02116,7.06175 -0.90155,2.37123 -1.39941,2.61129 -4.25,2.04924 -10.73534,-2.11667 -28.2064,-15.62613 -46.36923,-35.85491 -7.17367,-7.98965 -8.84602,-8.32467 -16.22329,-3.25 -5.55981,3.82447 -10.88509,4.60838 -13.50541,1.98805 -1.65347,-1.65346 -3.21813,-9.72889 -2.20321,-11.37106 1.13636,-1.83868 -0.55291,-6.11699 -2.41527,-6.11699 -0.97391,0 -4.40372,1.20541 -7.62179,2.6787 -4.19234,1.91931 -8.03513,2.80513 -13.55531,3.12469 l -7.70426,0.44599 -2.07243,5.12531 c -2.70708,6.69485 -5.01947,17.81553 -5.04128,24.24432 -0.0395,11.65415 5.31243,32.17981 11.66322,44.73042 1.34964,2.66719 2.25127,5.05205 2.00363,5.29969 -0.811,0.811 -11.08126,-12.30997 -15.98572,-20.42287 -8.8592,-14.65478 -12.33424,-29.03596 -11.41168,-47.22625 1.37753,-27.16052 16.08189,-50.23002 43.85574,-68.80472 11.87482,-7.94169 17.85745,-16.51045 17.85745,-25.57675 0,-6.03096 -1.30458,-8.43002 -5.54837,-10.20319 -6.92934,-2.89526 -13.26234,-0.91194 -22.45163,7.03122 -6.42668,5.55518 -11.15811,8.09048 -13.45426,7.20937 -1.97073,-0.75624 -4.54574,-6.5658 -4.54574,-10.25578 0,-1.46524 -0.9367,-4.1797 -2.08156,-6.03212 -3.68837,-5.96791 -10.19234,-4.13866 -21.91844,6.16459 -10.96777,9.63694 -19.8461,12.66718 -30.63073,10.4545 -8.46256,-1.73626 -15.76441,-5.63307 -20.9567,-11.18404 -5.62093,-6.00923 -7.66851,-10.69975 -7.79191,-17.84942 -0.14894,-8.62864 4.33058,-16.65887 16.17686,-28.99954 5.33637,-5.55907 10.00835,-10.86042 10.3822,-11.78076 1.13386,-2.7914 0.82852,-12.53228 -0.46515,-14.83937 -1.87107,-3.33678 -5.24702,-5.59091 -17.71457,-11.82806 -6.325,-3.16421 -14.04918,-7.53581 -17.16484,-9.71468 -11.59119,-8.10601 -21.83516,-27.72903 -21.83516,-41.82673 0,-6.94815 1.51231,-8.83938 11.93675,-14.92758 13.94978,-8.14711 17.26296,-12.60326 24.56325,-33.03694 5.08451,-14.23166 8.80829,-21.34619 14.17664,-27.08539 4.36226,-4.66361 7.22374,-6.70435 19.57336,-13.95928 4.15691,-2.44202 5.75,-3.97091 5.75,-5.51827 0,-5.19467 -12.46783,-44.73271 -18.16098,-57.59218 -8.00856,-18.08942 -9.12764,-19.85273 -12.57432,-19.81308 -1.52058,0.0175 -3.63821,0.6925 -4.70583,1.5 -2.62278,1.98377 -5.33028,1.8519 -5.78592,-0.2818 -0.63779,-2.98671 1.13724,-9.14747 3.89357,-13.51378 l 2.63701,-4.17729 -2.26552,-6.6545 c -3.45694,-10.15411 -2.51342,-9.7535 -13.96431,-5.92904 -5.53783,1.84957 -10.37521,3.05643 -10.74972,2.68192 -0.81924,-0.81924 9.17612,-10.65731 10.82769,-10.65731 0.69668,0 0.49873,0.72883 -0.49668,1.82874 -2.59756,2.87027 -2.11528,4.50232 1.09501,3.70554 7.8702,-1.95334 10.52883,-5.76766 4.42813,-6.353 l -3.32187,-0.31872 2.54571,-2.35928 c 2.50774,-2.3241 2.52356,-2.4312 1.06091,-7.18128 -2.61058,-8.4781 -2.59545,-9.97191 0.0442,-4.35749 2.8098,5.97645 3.86292,6.99717 7.24297,7.02018 2.87174,0.0195 2.87174,1.34952 0,3.29798 -1.76423,1.19703 -1.99062,1.79579 -1.04862,2.77336 0.95692,0.99304 2.49738,0.80896 7.5705,-0.90465 3.50301,-1.18326 7.13603,-2.15138 8.07337,-2.15138 2.27536,0 3.65475,-3.95389 3.65475,-10.47597 0,-4.31782 0.89669,-7.20051 4.66315,-14.99117 l 4.66315,-9.64539 0.60602,-13.879573 c 0.33332,-7.633766 0.93111,-14.204662 1.32844,-14.601991 0.39733,-0.39733 0.60761,7.786297 0.46728,18.185839 l -0.25515,18.908255 -3.48644,5.41171 c -2.61442,4.05813 -3.48645,6.4967 -3.48645,9.74959 0,3.84192 0.49657,4.79179 4.34305,8.30782 4.0791,3.72867 4.30303,4.20681 3.68456,7.86744 -0.61695,3.65171 -0.33207,4.26853 4.51712,9.78047 8.17058,9.28728 30.09922,42.84239 37.46689,57.33165 3.69162,7.25996 7.28436,13.41954 7.98387,13.68796 0.6995,0.26843 3.4693,-0.86407 6.1551,-2.51666 2.6858,-1.65259 9.82566,-5.12071 15.86634,-7.70693 10.85007,-4.64527 11.11628,-4.70242 21.98307,-4.71961 20.18089,-0.0319 33.65345,5.40895 47.17588,19.05192 8.77279,8.85099 11.33725,9.73484 11.30881,3.89765 -0.008,-1.72865 -0.44094,-3.81801 -0.96116,-4.64301 -0.52021,-0.825 -10.40162,-10.99256 -21.95868,-22.59457 -23.55294,-23.64455 -26.03748,-27.24183 -26.05508,-37.72421 -0.005,-3.20033 1.087,-10.17533 2.42749,-15.5 4.67238,-18.55956 5.94559,-27.26832 5.98009,-40.90414 0.024,-9.49413 0.32239,-12.73706 1.05805,-11.5 0.58499,0.98368 1.0246,8.58789 1.0246,17.72292 0,15.90715 -0.0247,16.08323 -4.25,30.34191 -4.71802,15.92127 -5.11756,20.65 -2.27409,26.91444 2.94775,6.49417 6.4768,10.59815 16.44618,19.12547 12.14064,10.38452 37.63169,34.70888 39.82132,37.99875 2.69088,4.04298 2.14218,9.16245 -1.96363,18.32099 -3.59019,8.00841 -3.72424,8.71784 -3.83536,20.29844 -0.0633,6.6 -0.25645,14.925 -0.42914,18.5 -0.26704,5.52812 -0.42292,4.78001 -1.04254,-5.00341 -1.28073,-20.22181 -3.34212,-26.12053 -8.09164,-23.15441 -2.17754,1.3599 -4.8811,1.52529 -4.8811,0.29861 0,-0.47257 1.76851,-2.86834 3.93002,-5.32395 l 3.93002,-4.46474 -2.49518,-4.42605 c -3.26344,-5.78883 -9.89501,-12.59006 -14.69277,-15.06864 -3.75477,-1.93977 -3.83747,-1.94101 -4.32804,-0.0651 -0.48271,1.8459 -0.61899,1.85189 -3.91369,0.17215 -1.87747,-0.95718 -6.67985,-4.52753 -10.67197,-7.9341 -3.99211,-3.40657 -9.38093,-7.28201 -11.97515,-8.61208 -5.01742,-2.57246 -11.18832,-3.18992 -12.39339,-1.24008 -0.85798,1.38824 0.26603,2.25301 11.61015,8.93244 4.675,2.75264 9.84962,6.09762 11.49915,7.43329 2.63114,2.13051 2.84587,2.67393 1.75,4.4287 -1.70433,2.72906 -1.56988,6.56375 0.29552,8.42915 2.61575,2.61575 9.06509,4.09702 12.00533,2.75736 3.70187,-1.68668 4.28083,-1.36824 1.58922,0.8741 -4.88834,4.07239 -13.94844,1.06091 -16.71282,-5.55517 -1.65116,-3.95178 -4.46643,-4.543 -9.42437,-1.97915 -7.82884,4.04848 -17.00203,23.99641 -17.00203,36.97248 0,13.29665 4.10399,21.93016 15.1962,31.96803 8.70429,7.87693 16.90669,11.73919 26.19708,12.33541 12.71609,0.81607 19.58117,-2.83246 24.53026,-13.0369 2.65271,-5.46958 3.02718,-5.86841 3.04013,-3.23794 0.008,1.65 -1.77552,6.825 -3.96367,11.5 -2.18815,4.675 -3.9833,9.99464 -3.98922,11.82143 -0.0102,3.13392 -0.10733,3.22487 -1.72112,1.61109 -2.09355,-2.09355 -7.50629,-4.43252 -10.25754,-4.43252 -3.03587,0 -2.65178,5.22612 1.11577,15.18178 2.47635,6.54368 3.13706,9.81155 3.0971,15.31822 -0.0733,10.10508 -2.7464,16.2227 -12.24722,28.029 -4.41316,5.48405 -9.14303,12.19685 -10.51084,14.91734 -2.66289,5.29633 -3.26535,12.11896 -1.40132,15.8694 0.59709,1.20134 5.52281,6.45926 10.94605,11.68426 5.73674,5.52705 10.12716,10.60916 10.49824,12.1522 0.49217,2.04653 -0.1806,3.84196 -2.94604,7.86221 -1.97112,2.86551 -3.58386,5.76477 -3.58386,6.44281 0,1.76727 3.31133,4.5163 6.64255,5.51457 2.25297,0.67516 1.36607,0.87449 -4.19255,0.94226 -10.98731,0.13395 -12.2555,-3.06048 -4.95,-12.46852 2.475,-3.18731 4.5,-6.53802 4.5,-7.44601 0,-2.43209 -3.75531,-5.50524 -10.17819,-8.32931 -3.12301,-1.37315 -7.71185,-4.37119 -10.19742,-6.66232 -5.75278,-5.30272 -8.14268,-11.31169 -8.06794,-20.28533 0.0537,-6.4459 0.44502,-7.53989 8,-22.36427 7.72637,-15.16069 7.94355,-15.78194 7.94355,-22.72257 0,-5.78819 -0.52787,-8.21065 -2.79527,-12.82791 -3.69599,-7.52641 -10.33391,-14.76129 -17.98267,-19.59989 -17.98605,-11.37798 -25.84967,-23.34817 -36.00438,-54.80677 -12.47786,-38.65552 -26.81273,-66.03983 -47.41398,-90.57624 -8.61409,-10.25953 -17.63423,-23.14024 -18.81919,-26.87372 -1.1605,-3.65641 -5.02983,-2.30807 -11.94792,4.16347 -6.77678,6.33934 -7.50872,8.01485 -4.96918,11.37516 1.32041,1.74716 2.48987,1.95422 9.58967,1.69794 l 8.08587,-0.29188 -0.67555,2.69163 c -0.37156,1.48039 -1.31276,4.09132 -2.09156,5.80206 -1.4128,3.10342 -1.41468,3.09972 -0.83237,-1.63957 0.58014,-4.72166 0.56609,-4.75 -2.35561,-4.75 -4.09397,0 -7.28786,3.64547 -7.28786,8.31828 0,4.94339 6.47411,18.24835 18.57898,38.18172 15.47146,25.4772 16.75086,28.81185 27.49118,71.65326 11.17021,44.55612 18.89257,61.16283 38.52496,82.84674 5.74597,6.3464 8.76416,10.78029 11.9124,17.5 2.31913,4.95 9.00326,16.2963 14.85363,25.21399 12.84805,19.58423 20.70348,33.4584 24.12605,42.61116 3.03389,8.11333 3.51524,15.90969 1.14404,18.52983 -3.07651,3.39951 -1.08902,11.06657 3.88244,14.97712 6.38513,5.02255 9.59498,1.63138 10.40217,-10.98976 0.71031,-11.10631 1.9638,-12.57765 7.86131,-9.22759 4.32473,2.45665 13.87414,13.36682 17.21994,19.67372 2.90835,5.48228 2.43994,7.37045 -3.89761,15.71153 -2.89341,3.80812 -5.88879,9.27949 -7.23285,13.21154 -2.11755,6.19493 -2.42461,6.59348 -3.98902,5.17771 -2.67762,-2.42322 -4.16659,-7.03539 -3.46999,-10.74855 0.46329,-2.46959 2.80706,-5.56032 8.61441,-11.35989 8.7245,-8.71279 9.515,-10.83468 5.52341,-14.82626 -4.17231,-4.17231 -7.69661,-3.04386 -16.68924,5.34376 -3.49591,3.26072 -7.35114,6.23978 -8.56716,6.62013 -1.28144,0.40081 -4.24182,-0.0297 -7.04162,-1.02416 -8.29519,-2.94619 -12.90677,-0.37854 -18.52315,10.31335 -3.76212,7.16196 -7.72428,20.45209 -7.72428,25.90928 0,3.90396 1.73847,5.82115 6.74086,7.43384 5.21545,1.68137 5.38884,1.83838 4.29249,3.88694 -0.81978,1.53176 0.86388,3.50682 10.74729,12.60732 23.50381,21.64196 33.22274,26.8338 39.69498,21.20499 2.04769,-1.78085 3.08409,-4.43938 4.97045,-12.75 4.63713,-20.42953 11.28943,-36.0931 29.40654,-69.24091 5.48879,-10.0425 11.3966,-21.83193 13.12849,-26.19872 2.86894,-7.2338 6.87059,-22.25585 8.49143,-31.87657 l 0.64293,-3.81619 -31.80773,0.54571 c -34.00806,0.58347 -35.40105,0.15481 -10.96558,-3.37443 27.76566,-4.01022 45.30641,-10.20929 54.8513,-19.38497 6.50868,-6.25692 9.02075,-11.59246 9.5945,-20.37834 0.41626,-6.37414 0.15338,-7.87521 -2.23352,-12.75386 -3.56907,-7.29491 -8.66533,-10.71361 -23.40975,-15.70387 -17.87444,-6.04961 -26.46141,-12.72444 -32.24532,-25.06498 -3.15293,-6.72709 -3.39275,-7.94155 -3.3082,-16.75287 0.11288,-11.7633 2.16161,-18.89026 14.3731,-50 14.35779,-36.57762 15.62208,-41.936 11.71419,-49.64785 -3.46304,-6.83397 -10.01645,-13.8378 -19.51301,-20.85412 -4.42726,-3.27098 -7.87112,-6.12569 -7.65302,-6.34378 0.56416,-0.56416 11.23791,5.54409 15.98758,9.14919 6.82604,5.1811 13.58132,12.04031 15.45874,15.69656 3.19327,6.21886 3.26917,8.98906 0.50771,18.53039 -2.74097,9.47053 -3.84884,12.29006 -12.89593,32.82003 -5.83281,13.236 -10.56356,28.65278 -10.568,34.43942 -0.006,7.97323 8.03158,16.72733 18.58204,20.2383 3.46899,1.1544 7.51759,3.05097 8.99688,4.21458 2.95321,2.32299 2.84295,-0.0447 1.12728,24.20768 -0.19041,2.6916 0.42701,3.30563 7.03868,7 15.41676,8.61435 21.26253,16.45688 21.24073,28.49594 -0.007,3.60451 -0.63097,8.80366 -1.38765,11.55366 -2.05562,7.47077 -17.83631,48.06083 -21.51393,55.33674 -4.69196,9.28273 -4.23265,10.39416 4.91345,11.88934 4.125,0.67435 9.48162,1.97546 11.90359,2.89137 5.41841,2.04905 11.94659,7.79435 13.74928,12.10043 2.17337,5.19153 1.67841,15.44262 -1.15287,23.87686 -3.9573,11.78859 -3.66176,13.2498 4.05952,20.07084 3.60774,3.18711 6.12268,5.94035 5.58877,6.11832 -1.95985,0.65329 -12.25549,-3.00322 -15.0302,-5.33799 -5.69892,-4.79532 -6.22343,-10.08155 -2.63722,-26.57884 2.11374,-9.72364 1.01635,-14.60515 -4.53025,-20.15175 -2.96389,-2.96388 -4.50489,-3.78286 -6.6539,-3.53625 -3.92109,0.44995 -4.01468,3.25298 -0.34175,10.23533 3.58295,6.81129 3.87172,11.61588 0.94518,15.72583 -1.15492,1.62194 -7.44772,6.98733 -13.984,11.92309 -11.3892,8.60037 -14.91615,12.56575 -14.91615,16.77039 0,2.5125 2.52682,3.13573 12.78212,3.15264 13.20611,0.0218 21.21788,4.65354 21.21788,12.26648 0,4.57581 -1.28283,7.265 -5.22502,10.95322 -2.37715,2.224 -2.70612,3.0541 -1.84672,4.6599 0.61949,1.15752 2.57936,2.21937 4.8087,2.60532 2.06967,0.35831 4.88804,1.32706 6.26304,2.15277 l 2.5,1.5013 -2.5,-0.66164 c -1.375,-0.3639 -5.425,-0.89808 -9,-1.18706 -6.98655,-0.56476 -7.961,-1.24528 -7.98469,-5.5763 -0.0349,-6.37751 -5.42815,-11.70034 -11.85518,-11.70034 -1.61656,0 -6.67569,0.7088 -11.24251,1.57511 -10.36543,1.96629 -14.39549,1.33526 -16.41513,-2.5703 -2.27996,-4.40896 -1.81683,-9.20415 1.49751,-15.50481 3.2142,-6.1103 3.81162,-9.5 1.67431,-9.5 -2.19793,0 -5.36228,4.10657 -8.86139,11.5 -3.08044,6.50877 -3.30942,7.70175 -3.26307,17 0.0589,11.81019 2.29067,20.17363 8.90587,33.37394 8.41593,16.79359 12.54428,33.43135 12.54428,50.55503 0,10.65487 -2.06839,20.57415 -4.28874,20.56728 -0.66619,-0.002 -1.97741,-1.91456 -2.91383,-4.25 z M 395.9988,614.14468 c 1.78579,-1.78579 1.96365,-2.83013 1.40505,-8.25 -0.78274,-7.59449 -2.19267,-13.42853 -3.43017,-14.19334 -0.91816,-0.56746 -2.23767,3.51555 -3.47017,10.73795 -0.57228,3.35348 -0.95577,3.75 -3.62675,3.75 -4.17773,0 -9.12573,-2.25583 -16.51734,-7.53038 -7.43321,-5.30422 -13.16867,-12.93409 -19.89752,-26.46962 -6.28244,-12.63754 -8.87965,-16 -12.3586,-16 -3.10357,0 -5.14911,1.60634 -5.14911,4.04354 0,0.90395 4.33177,7.40331 9.62616,14.44302 23.96033,31.85895 45.27773,47.60955 53.41845,39.46883 z m -66.76307,-27.20539 c 4.06898,-4.35121 7.65732,-10.87846 7.6965,-14 0.0121,-0.9625 -0.93028,-2.70224 -2.09414,-3.8661 -1.68983,-1.68983 -2.92094,-2.00814 -6.11158,-1.58019 -8.00349,1.0735 -12.9926,9.43391 -10.70953,17.94629 1.50094,5.59624 1.62528,5.75 4.64984,5.75 1.76237,0 3.86936,-1.3632 6.56891,-4.25 z m -29.42803,-9.11235 c 7.10677,-2.88773 23.66797,-13.87501 25.18416,-16.70804 0.85662,-1.60061 0.75191,-2.60181 -0.4666,-4.46148 -2.23635,-3.41311 -1.98068,-3.73131 1.53663,-1.91243 6.25652,3.23537 10.24254,-0.75525 6.3316,-6.33891 -4.75511,-6.78885 -17.83451,-6.88303 -13.59712,-0.0979 1.66567,2.66717 1.48872,2.83227 -1.73238,1.61644 -4.79458,-1.80975 -10.89168,1.2302 -18.37261,9.16038 -6.22985,6.60397 -11.73719,15.66024 -11.73719,19.30063 0,2.61135 5.65715,2.36546 12.85351,-0.55869 z m -53.55569,-89.65727 c 1.84474,-1.45107 2.88732,-3.63281 3.70347,-7.75 2.92795,-14.77041 3.94635,-16.30019 9.19081,-13.80593 1.81935,0.86527 7.09524,4.7174 11.72421,8.56028 8.82356,7.32513 13.2963,9.15069 17.60733,7.18645 3.46426,-1.57842 5.38721,-5.09769 6.62498,-12.12465 0.85714,-4.86607 1.8089,-6.93739 4.35983,-9.48831 3.89791,-3.89791 10.44286,-5.80076 16.90533,-4.91498 6.37594,0.87392 5.85799,-1.84267 -1.35806,-7.12293 -2.56579,-1.87748 -4.68679,-2.52031 -8.31574,-2.52031 -6.49609,0 -7.69976,0.79045 -13.63976,8.9572 -2.79329,3.84043 -6.21805,7.72912 -7.61057,8.64154 -3.65342,2.39381 -9.26822,1.32981 -19.4287,-3.68173 -6.69127,-3.30039 -10.3426,-5.99739 -16.71887,-12.34915 -7.09615,-7.06887 -8.38511,-8.90365 -9.90354,-14.09721 -2.47675,-8.47135 -2.26278,-21.33398 0.4753,-28.57247 1.16544,-3.081 5.56265,-11.39754 9.77158,-18.4812 5.95321,-10.0193 7.75572,-13.95263 8.11699,-17.71238 0.45683,-4.75434 0.37645,-4.91739 -4.93909,-10.0188 -2.97192,-2.85219 -9.44445,-7.46346 -14.3834,-10.24727 -10.03308,-5.65508 -13.47992,-9.59014 -13.47992,-15.38931 0,-5.21847 6.5961,-18.08144 13.99898,-27.29922 5.8974,-7.34322 9.0493,-9.85731 7.52216,-6 -5.35911,13.53624 -1.65209,26.53392 16.87678,59.1738 9.31406,16.40735 9.42563,19.11356 1.19427,28.96585 -5.95953,7.1331 -7.11477,15.65372 -3.55505,26.2206 3.84685,11.41921 11.74499,21.87732 18.45837,24.44119 6.38346,2.43786 16.65267,1.58927 23.94537,-1.97871 5.83987,-2.85719 11.55912,-8.75717 11.55912,-11.9244 0,-1.71264 -0.55604,-1.83665 -5.75,-1.28233 -15.50095,1.65433 -22.08528,1.84347 -25.45541,0.73122 -7.66048,-2.52818 -15.4176,-14.23968 -12.97805,-19.59391 0.65675,-1.44142 3.59177,-3.69023 7.18094,-5.50204 6.48568,-3.27396 9.99226,-7.53355 9.99878,-12.14593 0.006,-4.33522 -3.93674,-15.78138 -8.56195,-24.85534 -2.86447,-5.61968 -7.06975,-11.54975 -12.41003,-17.5 -5.31037,-5.91693 -9.32393,-11.56923 -11.71623,-16.5 -3.27442,-6.74888 -3.6469,-8.35127 -3.71928,-16 -0.0728,-7.69504 0.22151,-9.07839 3.10788,-14.60753 3.61418,-6.92333 3.16238,-8.39247 -2.58092,-8.39247 -5.97558,0 -11.14522,3.39561 -18.61341,12.22597 -13.86121,16.38944 -23.6071,26.6788 -28.75741,30.36103 -7.63753,5.46048 -12.65242,10.40554 -14.82964,14.62316 -5.18616,10.04639 -0.028,17.48251 22.16423,31.95217 12.74832,8.31212 15.28637,11.12635 18.05391,20.01849 3.54408,11.38714 2.51048,24.08445 -4.20595,51.66834 -4.33625,17.80865 -4.36998,20.2426 -0.39009,28.15084 5.08041,10.09504 14.72207,14.73017 20.76045,9.98038 z M 363.75419,359.98929 c 1.71093,-1.71093 1.48277,-8.61384 -0.47459,-14.35838 -1.72001,-5.04794 -8.65467,-12.48895 -33.09871,-35.5155 l -9.10168,-8.57388 -8.56905,-17.92612 c -12.85657,-26.89544 -15.01244,-30.89035 -16.86234,-31.2466 -2.62649,-0.50582 -2.14885,4.44077 1.35205,14.00226 7.98695,21.81362 18.19012,38.25164 31.85352,51.31822 25.41472,24.30461 27.09899,26.37083 28.4125,34.85577 0.60314,3.89619 3.08111,8.64423 4.51135,8.64423 0.42732,0 1.31695,-0.54 1.97695,-1.2 z M 206.43112,181.01785 c 2.88701,-1.31541 4.37926,-5.37237 2.62233,-7.1293 -0.83204,-0.83204 -1.6352,-0.85564 -2.87678,-0.0845 -2.16219,1.34285 -4.53899,6.06413 -3.71997,7.38934 0.7718,1.24879 0.85666,1.24504 3.97442,-0.1755 z m 13.54011,-26.46292 c 6.77328,-6.11925 6.20038,-10.38406 -1.38948,-10.34368 -4.22016,0.0224 -11.82524,2.87084 -13.07828,4.89831 -1.03486,1.67443 0.31132,6.63279 2.58582,9.52435 1.91769,2.43795 2.11543,2.47719 4.99059,0.99038 1.64658,-0.85148 4.74769,-3.13269 6.89135,-5.06936 z"
       id="path846"
       inkscape:connector-curvature="0" />
    <path
       style="opacity:0;fill:#ff6600;fill-opacity:1;stroke:#f5a037;stroke-opacity:1"
       d="m 419.75162,658.93554 c -0.93641,-2.33544 -4.02646,-10.54625 -6.86679,-18.24625 -7.05791,-19.13368 -10.81817,-26.30558 -13.06429,-24.9174 -0.47649,0.29449 -0.86635,2.50458 -0.86635,4.91132 0,2.40673 -0.45952,5.58452 -1.02116,7.06175 -0.90155,2.37123 -1.39941,2.61129 -4.25,2.04924 -10.73534,-2.11667 -28.2064,-15.62613 -46.36923,-35.85491 -7.17367,-7.98965 -8.84602,-8.32467 -16.22329,-3.25 -5.55981,3.82447 -10.88509,4.60838 -13.50541,1.98805 -1.65347,-1.65346 -3.21813,-9.72889 -2.20321,-11.37106 1.13636,-1.83868 -0.55291,-6.11699 -2.41527,-6.11699 -0.97391,0 -4.40372,1.20541 -7.62179,2.6787 -4.19234,1.91931 -8.03513,2.80513 -13.55531,3.12469 l -7.70426,0.44599 -2.07243,5.12531 c -2.70708,6.69485 -5.01947,17.81553 -5.04128,24.24432 -0.0395,11.65415 5.31243,32.17981 11.66322,44.73042 1.34964,2.66719 2.25127,5.05205 2.00363,5.29969 -0.811,0.811 -11.08126,-12.30997 -15.98572,-20.42287 -8.8592,-14.65478 -12.33424,-29.03596 -11.41168,-47.22625 1.37753,-27.16052 16.08189,-50.23002 43.85574,-68.80472 11.87482,-7.94169 17.85745,-16.51045 17.85745,-25.57675 0,-6.03096 -1.30458,-8.43002 -5.54837,-10.20319 -6.92934,-2.89526 -13.26234,-0.91194 -22.45163,7.03122 -6.42668,5.55518 -11.15811,8.09048 -13.45426,7.20937 -1.97073,-0.75624 -4.54574,-6.5658 -4.54574,-10.25578 0,-1.46524 -0.9367,-4.1797 -2.08156,-6.03212 -3.68837,-5.96791 -10.19234,-4.13866 -21.91844,6.16459 -10.96777,9.63694 -19.8461,12.66718 -30.63073,10.4545 -8.46256,-1.73626 -15.76441,-5.63307 -20.9567,-11.18404 -5.62093,-6.00923 -7.66851,-10.69975 -7.79191,-17.84942 -0.14894,-8.62864 4.33058,-16.65887 16.17686,-28.99954 5.33637,-5.55907 10.00835,-10.86042 10.3822,-11.78076 1.13386,-2.7914 0.82852,-12.53228 -0.46515,-14.83937 -1.87107,-3.33678 -5.24702,-5.59091 -17.71457,-11.82806 -6.325,-3.16421 -14.04918,-7.53581 -17.16484,-9.71468 -11.59119,-8.10601 -21.83516,-27.72903 -21.83516,-41.82673 0,-6.94815 1.51231,-8.83938 11.93675,-14.92758 13.94978,-8.14711 17.26296,-12.60326 24.56325,-33.03694 5.08451,-14.23166 8.80829,-21.34619 14.17664,-27.08539 4.36226,-4.66361 7.22374,-6.70435 19.57336,-13.95928 4.15691,-2.44202 5.75,-3.97091 5.75,-5.51827 0,-5.19467 -12.46783,-44.73271 -18.16098,-57.59218 -8.00856,-18.08942 -9.12764,-19.85273 -12.57432,-19.81308 -1.52058,0.0175 -3.63821,0.6925 -4.70583,1.5 -2.62278,1.98377 -5.33028,1.8519 -5.78592,-0.2818 -0.63779,-2.98671 1.13724,-9.14747 3.89357,-13.51378 l 2.63701,-4.17729 -2.26552,-6.6545 c -3.45694,-10.15411 -2.51342,-9.7535 -13.96431,-5.92904 -5.53783,1.84957 -10.37521,3.05643 -10.74972,2.68192 -0.81924,-0.81924 9.17612,-10.65731 10.82769,-10.65731 0.69668,0 0.49873,0.72883 -0.49668,1.82874 -2.59756,2.87027 -2.11528,4.50232 1.09501,3.70554 7.8702,-1.95334 10.52883,-5.76766 4.42813,-6.353 l -3.32187,-0.31872 2.54571,-2.35928 c 2.50774,-2.3241 2.52356,-2.4312 1.06091,-7.18128 -2.61058,-8.4781 -2.59545,-9.97191 0.0442,-4.35749 2.8098,5.97645 3.86292,6.99717 7.24297,7.02018 2.87174,0.0195 2.87174,1.34952 0,3.29798 -1.76423,1.19703 -1.99062,1.79579 -1.04862,2.77336 0.95692,0.99304 2.49738,0.80896 7.5705,-0.90465 3.50301,-1.18326 7.13603,-2.15138 8.07337,-2.15138 2.27536,0 3.65475,-3.95389 3.65475,-10.47597 0,-4.31782 0.89669,-7.20051 4.66315,-14.99117 l 4.66315,-9.64539 0.60602,-13.879573 c 0.33332,-7.633766 0.93111,-14.204662 1.32844,-14.601991 0.39733,-0.39733 0.60761,7.786297 0.46728,18.185839 l -0.25515,18.908255 -3.48644,5.41171 c -2.61442,4.05813 -3.48645,6.4967 -3.48645,9.74959 0,3.84192 0.49657,4.79179 4.34305,8.30782 4.0791,3.72867 4.30303,4.20681 3.68456,7.86744 -0.61695,3.65171 -0.33207,4.26853 4.51712,9.78047 8.17058,9.28728 30.09922,42.84239 37.46689,57.33165 3.69162,7.25996 7.28436,13.41954 7.98387,13.68796 0.6995,0.26843 3.4693,-0.86407 6.1551,-2.51666 2.6858,-1.65259 9.82566,-5.12071 15.86634,-7.70693 10.85007,-4.64527 11.11628,-4.70242 21.98307,-4.71961 20.18089,-0.0319 33.65345,5.40895 47.17588,19.05192 8.77279,8.85099 11.33725,9.73484 11.30881,3.89765 -0.008,-1.72865 -0.44094,-3.81801 -0.96116,-4.64301 -0.52021,-0.825 -10.40162,-10.99256 -21.95868,-22.59457 -23.55294,-23.64455 -26.03748,-27.24183 -26.05508,-37.72421 -0.005,-3.20033 1.087,-10.17533 2.42749,-15.5 4.67238,-18.55956 5.94559,-27.26832 5.98009,-40.90414 0.024,-9.49413 0.32239,-12.73706 1.05805,-11.5 0.58499,0.98368 1.0246,8.58789 1.0246,17.72292 0,15.90715 -0.0247,16.08323 -4.25,30.34191 -4.71802,15.92127 -5.11756,20.65 -2.27409,26.91444 2.94775,6.49417 6.4768,10.59815 16.44618,19.12547 12.14064,10.38452 37.63169,34.70888 39.82132,37.99875 2.69088,4.04298 2.14218,9.16245 -1.96363,18.32099 -3.59019,8.00841 -3.72424,8.71784 -3.83536,20.29844 -0.0633,6.6 -0.25645,14.925 -0.42914,18.5 -0.26704,5.52812 -0.42292,4.78001 -1.04254,-5.00341 -1.28073,-20.22181 -3.34212,-26.12053 -8.09164,-23.15441 -2.17754,1.3599 -4.8811,1.52529 -4.8811,0.29861 0,-0.47257 1.76851,-2.86834 3.93002,-5.32395 l 3.93002,-4.46474 -2.49518,-4.42605 c -3.26344,-5.78883 -9.89501,-12.59006 -14.69277,-15.06864 -3.75477,-1.93977 -3.83747,-1.94101 -4.32804,-0.0651 -0.48271,1.8459 -0.61899,1.85189 -3.91369,0.17215 -1.87747,-0.95718 -6.67985,-4.52753 -10.67197,-7.9341 -3.99211,-3.40657 -9.38093,-7.28201 -11.97515,-8.61208 -5.01742,-2.57246 -11.18832,-3.18992 -12.39339,-1.24008 -0.85798,1.38824 0.26603,2.25301 11.61015,8.93244 4.675,2.75264 9.84962,6.09762 11.49915,7.43329 2.63114,2.13051 2.84587,2.67393 1.75,4.4287 -1.70433,2.72906 -1.56988,6.56375 0.29552,8.42915 2.61575,2.61575 9.06509,4.09702 12.00533,2.75736 3.70187,-1.68668 4.28083,-1.36824 1.58922,0.8741 -4.88834,4.07239 -13.94844,1.06091 -16.71282,-5.55517 -1.65116,-3.95178 -4.46643,-4.543 -9.42437,-1.97915 -7.82884,4.04848 -17.00203,23.99641 -17.00203,36.97248 0,13.29665 4.10399,21.93016 15.1962,31.96803 8.70429,7.87693 16.90669,11.73919 26.19708,12.33541 12.71609,0.81607 19.58117,-2.83246 24.53026,-13.0369 2.65271,-5.46958 3.02718,-5.86841 3.04013,-3.23794 0.008,1.65 -1.77552,6.825 -3.96367,11.5 -2.18815,4.675 -3.9833,9.99464 -3.98922,11.82143 -0.0102,3.13392 -0.10733,3.22487 -1.72112,1.61109 -2.09355,-2.09355 -7.50629,-4.43252 -10.25754,-4.43252 -3.03587,0 -2.65178,5.22612 1.11577,15.18178 2.47635,6.54368 3.13706,9.81155 3.0971,15.31822 -0.0733,10.10508 -2.7464,16.2227 -12.24722,28.029 -4.41316,5.48405 -9.14303,12.19685 -10.51084,14.91734 -2.66289,5.29633 -3.26535,12.11896 -1.40132,15.8694 0.59709,1.20134 5.52281,6.45926 10.94605,11.68426 5.73674,5.52705 10.12716,10.60916 10.49824,12.1522 0.49217,2.04653 -0.1806,3.84196 -2.94604,7.86221 -1.97112,2.86551 -3.58386,5.76477 -3.58386,6.44281 0,1.76727 3.31133,4.5163 6.64255,5.51457 2.25297,0.67516 1.36607,0.87449 -4.19255,0.94226 -10.98731,0.13395 -12.2555,-3.06048 -4.95,-12.46852 2.475,-3.18731 4.5,-6.53802 4.5,-7.44601 0,-2.43209 -3.75531,-5.50524 -10.17819,-8.32931 -3.12301,-1.37315 -7.71185,-4.37119 -10.19742,-6.66232 -5.75278,-5.30272 -8.14268,-11.31169 -8.06794,-20.28533 0.0537,-6.4459 0.44502,-7.53989 8,-22.36427 7.72637,-15.16069 7.94355,-15.78194 7.94355,-22.72257 0,-5.78819 -0.52787,-8.21065 -2.79527,-12.82791 -3.69599,-7.52641 -10.33391,-14.76129 -17.98267,-19.59989 -17.98605,-11.37798 -25.84967,-23.34817 -36.00438,-54.80677 -12.47786,-38.65552 -26.81273,-66.03983 -47.41398,-90.57624 -8.61409,-10.25953 -17.63423,-23.14024 -18.81919,-26.87372 -1.1605,-3.65641 -5.02983,-2.30807 -11.94792,4.16347 -6.77678,6.33934 -7.50872,8.01485 -4.96918,11.37516 1.32041,1.74716 2.48987,1.95422 9.58967,1.69794 l 8.08587,-0.29188 -0.67555,2.69163 c -0.37156,1.48039 -1.31276,4.09132 -2.09156,5.80206 -1.4128,3.10342 -1.41468,3.09972 -0.83237,-1.63957 0.58014,-4.72166 0.56609,-4.75 -2.35561,-4.75 -4.09397,0 -7.28786,3.64547 -7.28786,8.31828 0,4.94339 6.47411,18.24835 18.57898,38.18172 15.47146,25.4772 16.75086,28.81185 27.49118,71.65326 11.17021,44.55612 18.89257,61.16283 38.52496,82.84674 5.74597,6.3464 8.76416,10.78029 11.9124,17.5 2.31913,4.95 9.00326,16.2963 14.85363,25.21399 12.84805,19.58423 20.70348,33.4584 24.12605,42.61116 3.03389,8.11333 3.51524,15.90969 1.14404,18.52983 -3.07651,3.39951 -1.08902,11.06657 3.88244,14.97712 6.38513,5.02255 9.59498,1.63138 10.40217,-10.98976 0.71031,-11.10631 1.9638,-12.57765 7.86131,-9.22759 4.32473,2.45665 13.87414,13.36682 17.21994,19.67372 2.90835,5.48228 2.43994,7.37045 -3.89761,15.71153 -2.89341,3.80812 -5.88879,9.27949 -7.23285,13.21154 -2.11755,6.19493 -2.42461,6.59348 -3.98902,5.17771 -2.67762,-2.42322 -4.16659,-7.03539 -3.46999,-10.74855 0.46329,-2.46959 2.80706,-5.56032 8.61441,-11.35989 8.7245,-8.71279 9.515,-10.83468 5.52341,-14.82626 -4.17231,-4.17231 -7.69661,-3.04386 -16.68924,5.34376 -3.49591,3.26072 -7.35114,6.23978 -8.56716,6.62013 -1.28144,0.40081 -4.24182,-0.0297 -7.04162,-1.02416 -8.29519,-2.94619 -12.90677,-0.37854 -18.52315,10.31335 -3.76212,7.16196 -7.72428,20.45209 -7.72428,25.90928 0,3.90396 1.73847,5.82115 6.74086,7.43384 5.21545,1.68137 5.38884,1.83838 4.29249,3.88694 -0.81978,1.53176 0.86388,3.50682 10.74729,12.60732 23.50381,21.64196 33.22274,26.8338 39.69498,21.20499 2.04769,-1.78085 3.08409,-4.43938 4.97045,-12.75 4.63713,-20.42953 11.28943,-36.0931 29.40654,-69.24091 5.48879,-10.0425 11.3966,-21.83193 13.12849,-26.19872 2.86894,-7.2338 6.87059,-22.25585 8.49143,-31.87657 l 0.64293,-3.81619 -31.80773,0.54571 c -34.00806,0.58347 -35.40105,0.15481 -10.96558,-3.37443 27.76566,-4.01022 45.30641,-10.20929 54.8513,-19.38497 6.50868,-6.25692 9.02075,-11.59246 9.5945,-20.37834 0.41626,-6.37414 0.15338,-7.87521 -2.23352,-12.75386 -3.56907,-7.29491 -8.66533,-10.71361 -23.40975,-15.70387 -17.87444,-6.04961 -26.46141,-12.72444 -32.24532,-25.06498 -3.15293,-6.72709 -3.39275,-7.94155 -3.3082,-16.75287 0.11288,-11.7633 2.16161,-18.89026 14.3731,-50 14.35779,-36.57762 15.62208,-41.936 11.71419,-49.64785 -3.46304,-6.83397 -10.01645,-13.8378 -19.51301,-20.85412 -4.42726,-3.27098 -7.87112,-6.12569 -7.65302,-6.34378 0.56416,-0.56416 11.23791,5.54409 15.98758,9.14919 6.82604,5.1811 13.58132,12.04031 15.45874,15.69656 3.19327,6.21886 3.26917,8.98906 0.50771,18.53039 -2.74097,9.47053 -3.84884,12.29006 -12.89593,32.82003 -5.83281,13.236 -10.56356,28.65278 -10.568,34.43942 -0.006,7.97323 8.03158,16.72733 18.58204,20.2383 3.46899,1.1544 7.51759,3.05097 8.99688,4.21458 2.95321,2.32299 2.84295,-0.0447 1.12728,24.20768 -0.19041,2.6916 0.42701,3.30563 7.03868,7 15.41676,8.61435 21.26253,16.45688 21.24073,28.49594 -0.007,3.60451 -0.63097,8.80366 -1.38765,11.55366 -2.05562,7.47077 -17.83631,48.06083 -21.51393,55.33674 -4.69196,9.28273 -4.23265,10.39416 4.91345,11.88934 4.125,0.67435 9.48162,1.97546 11.90359,2.89137 5.41841,2.04905 11.94659,7.79435 13.74928,12.10043 2.17337,5.19153 1.67841,15.44262 -1.15287,23.87686 -3.9573,11.78859 -3.66176,13.2498 4.05952,20.07084 3.60774,3.18711 6.12268,5.94035 5.58877,6.11832 -1.95985,0.65329 -12.25549,-3.00322 -15.0302,-5.33799 -5.69892,-4.79532 -6.22343,-10.08155 -2.63722,-26.57884 2.11374,-9.72364 1.01635,-14.60515 -4.53025,-20.15175 -2.96389,-2.96388 -4.50489,-3.78286 -6.6539,-3.53625 -3.92109,0.44995 -4.01468,3.25298 -0.34175,10.23533 3.58295,6.81129 3.87172,11.61588 0.94518,15.72583 -1.15492,1.62194 -7.44772,6.98733 -13.984,11.92309 -11.3892,8.60037 -14.91615,12.56575 -14.91615,16.77039 0,2.5125 2.52682,3.13573 12.78212,3.15264 13.20611,0.0218 21.21788,4.65354 21.21788,12.26648 0,4.57581 -1.28283,7.265 -5.22502,10.95322 -2.37715,2.224 -2.70612,3.0541 -1.84672,4.6599 0.61949,1.15752 2.57936,2.21937 4.8087,2.60532 2.06967,0.35831 4.88804,1.32706 6.26304,2.15277 l 2.5,1.5013 -2.5,-0.66164 c -1.375,-0.3639 -5.425,-0.89808 -9,-1.18706 -6.98655,-0.56476 -7.961,-1.24528 -7.98469,-5.5763 -0.0349,-6.37751 -5.42815,-11.70034 -11.85518,-11.70034 -1.61656,0 -6.67569,0.7088 -11.24251,1.57511 -10.36543,1.96629 -14.39549,1.33526 -16.41513,-2.5703 -2.27996,-4.40896 -1.81683,-9.20415 1.49751,-15.50481 3.2142,-6.1103 3.81162,-9.5 1.67431,-9.5 -2.19793,0 -5.36228,4.10657 -8.86139,11.5 -3.08044,6.50877 -3.30942,7.70175 -3.26307,17 0.0589,11.81019 2.29067,20.17363 8.90587,33.37394 8.41593,16.79359 12.54428,33.43135 12.54428,50.55503 0,10.65487 -2.06839,20.57415 -4.28874,20.56728 -0.66619,-0.002 -1.97741,-1.91456 -2.91383,-4.25 z M 395.9988,614.14468 c 1.78579,-1.78579 1.96365,-2.83013 1.40505,-8.25 -0.78274,-7.59449 -2.19267,-13.42853 -3.43017,-14.19334 -0.91816,-0.56746 -2.23767,3.51555 -3.47017,10.73795 -0.57228,3.35348 -0.95577,3.75 -3.62675,3.75 -4.17773,0 -9.12573,-2.25583 -16.51734,-7.53038 -7.43321,-5.30422 -13.16867,-12.93409 -19.89752,-26.46962 -6.28244,-12.63754 -8.87965,-16 -12.3586,-16 -3.10357,0 -5.14911,1.60634 -5.14911,4.04354 0,0.90395 4.33177,7.40331 9.62616,14.44302 23.96033,31.85895 45.27773,47.60955 53.41845,39.46883 z m -66.76307,-27.20539 c 4.06898,-4.35121 7.65732,-10.87846 7.6965,-14 0.0121,-0.9625 -0.93028,-2.70224 -2.09414,-3.8661 -1.68983,-1.68983 -2.92094,-2.00814 -6.11158,-1.58019 -8.00349,1.0735 -12.9926,9.43391 -10.70953,17.94629 1.50094,5.59624 1.62528,5.75 4.64984,5.75 1.76237,0 3.86936,-1.3632 6.56891,-4.25 z m -29.42803,-9.11235 c 7.10677,-2.88773 23.66797,-13.87501 25.18416,-16.70804 0.85662,-1.60061 0.75191,-2.60181 -0.4666,-4.46148 -2.23635,-3.41311 -1.98068,-3.73131 1.53663,-1.91243 6.25652,3.23537 10.24254,-0.75525 6.3316,-6.33891 -4.75511,-6.78885 -17.83451,-6.88303 -13.59712,-0.0979 1.66567,2.66717 1.48872,2.83227 -1.73238,1.61644 -4.79458,-1.80975 -10.89168,1.2302 -18.37261,9.16038 -6.22985,6.60397 -11.73719,15.66024 -11.73719,19.30063 0,2.61135 5.65715,2.36546 12.85351,-0.55869 z m -53.55569,-89.65727 c 1.84474,-1.45107 2.88732,-3.63281 3.70347,-7.75 2.92795,-14.77041 3.94635,-16.30019 9.19081,-13.80593 1.81935,0.86527 7.09524,4.7174 11.72421,8.56028 8.82356,7.32513 13.2963,9.15069 17.60733,7.18645 3.46426,-1.57842 5.38721,-5.09769 6.62498,-12.12465 0.85714,-4.86607 1.8089,-6.93739 4.35983,-9.48831 3.89791,-3.89791 10.44286,-5.80076 16.90533,-4.91498 6.37594,0.87392 5.85799,-1.84267 -1.35806,-7.12293 -2.56579,-1.87748 -4.68679,-2.52031 -8.31574,-2.52031 -6.49609,0 -7.69976,0.79045 -13.63976,8.9572 -2.79329,3.84043 -6.21805,7.72912 -7.61057,8.64154 -3.65342,2.39381 -9.26822,1.32981 -19.4287,-3.68173 -6.69127,-3.30039 -10.3426,-5.99739 -16.71887,-12.34915 -7.09615,-7.06887 -8.38511,-8.90365 -9.90354,-14.09721 -2.47675,-8.47135 -2.26278,-21.33398 0.4753,-28.57247 1.16544,-3.081 5.56265,-11.39754 9.77158,-18.4812 5.95321,-10.0193 7.75572,-13.95263 8.11699,-17.71238 0.45683,-4.75434 0.37645,-4.91739 -4.93909,-10.0188 -2.97192,-2.85219 -9.44445,-7.46346 -14.3834,-10.24727 -10.03308,-5.65508 -13.47992,-9.59014 -13.47992,-15.38931 0,-5.21847 6.5961,-18.08144 13.99898,-27.29922 5.8974,-7.34322 9.0493,-9.85731 7.52216,-6 -5.35911,13.53624 -1.65209,26.53392 16.87678,59.1738 9.31406,16.40735 9.42563,19.11356 1.19427,28.96585 -5.95953,7.1331 -7.11477,15.65372 -3.55505,26.2206 3.84685,11.41921 11.74499,21.87732 18.45837,24.44119 6.38346,2.43786 16.65267,1.58927 23.94537,-1.97871 5.83987,-2.85719 11.55912,-8.75717 11.55912,-11.9244 0,-1.71264 -0.55604,-1.83665 -5.75,-1.28233 -15.50095,1.65433 -22.08528,1.84347 -25.45541,0.73122 -7.66048,-2.52818 -15.4176,-14.23968 -12.97805,-19.59391 0.65675,-1.44142 3.59177,-3.69023 7.18094,-5.50204 6.48568,-3.27396 9.99226,-7.53355 9.99878,-12.14593 0.006,-4.33522 -3.93674,-15.78138 -8.56195,-24.85534 -2.86447,-5.61968 -7.06975,-11.54975 -12.41003,-17.5 -5.31037,-5.91693 -9.32393,-11.56923 -11.71623,-16.5 -3.27442,-6.74888 -3.6469,-8.35127 -3.71928,-16 -0.0728,-7.69504 0.22151,-9.07839 3.10788,-14.60753 3.61418,-6.92333 3.16238,-8.39247 -2.58092,-8.39247 -5.97558,0 -11.14522,3.39561 -18.61341,12.22597 -13.86121,16.38944 -23.6071,26.6788 -28.75741,30.36103 -7.63753,5.46048 -12.65242,10.40554 -14.82964,14.62316 -5.18616,10.04639 -0.028,17.48251 22.16423,31.95217 12.74832,8.31212 15.28637,11.12635 18.05391,20.01849 3.54408,11.38714 2.51048,24.08445 -4.20595,51.66834 -4.33625,17.80865 -4.36998,20.2426 -0.39009,28.15084 5.08041,10.09504 14.72207,14.73017 20.76045,9.98038 z M 363.75419,359.98929 c 1.71093,-1.71093 1.48277,-8.61384 -0.47459,-14.35838 -1.72001,-5.04794 -8.65467,-12.48895 -33.09871,-35.5155 l -9.10168,-8.57388 -8.56905,-17.92612 c -12.85657,-26.89544 -15.01244,-30.89035 -16.86234,-31.2466 -2.62649,-0.50582 -2.14885,4.44077 1.35205,14.00226 7.98695,21.81362 18.19012,38.25164 31.85352,51.31822 25.41472,24.30461 27.09899,26.37083 28.4125,34.85577 0.60314,3.89619 3.08111,8.64423 4.51135,8.64423 0.42732,0 1.31695,-0.54 1.97695,-1.2 z M 206.43112,181.01785 c 2.88701,-1.31541 4.37926,-5.37237 2.62233,-7.1293 -0.83204,-0.83204 -1.6352,-0.85564 -2.87678,-0.0845 -2.16219,1.34285 -4.53899,6.06413 -3.71997,7.38934 0.7718,1.24879 0.85666,1.24504 3.97442,-0.1755 z m 13.54011,-26.46292 c 6.77328,-6.11925 6.20038,-10.38406 -1.38948,-10.34368 -4.22016,0.0224 -11.82524,2.87084 -13.07828,4.89831 -1.03486,1.67443 0.31132,6.63279 2.58582,9.52435 1.91769,2.43795 2.11543,2.47719 4.99059,0.99038 1.64658,-0.85148 4.74769,-3.13269 6.89135,-5.06936 z"
       id="path848"
       inkscape:connector-curvature="0" />
    <path
       style="opacity:0;fill:#ff6600;fill-opacity:1;stroke:#f5a037;stroke-opacity:1"
       d="m 419.75162,658.93554 c -0.93641,-2.33544 -4.02646,-10.54625 -6.86679,-18.24625 -7.05791,-19.13368 -10.81817,-26.30558 -13.06429,-24.9174 -0.47649,0.29449 -0.86635,2.50458 -0.86635,4.91132 0,2.40673 -0.45952,5.58452 -1.02116,7.06175 -0.90155,2.37123 -1.39941,2.61129 -4.25,2.04924 -10.73534,-2.11667 -28.2064,-15.62613 -46.36923,-35.85491 -7.17367,-7.98965 -8.84602,-8.32467 -16.22329,-3.25 -5.55981,3.82447 -10.88509,4.60838 -13.50541,1.98805 -1.65347,-1.65346 -3.21813,-9.72889 -2.20321,-11.37106 1.13636,-1.83868 -0.55291,-6.11699 -2.41527,-6.11699 -0.97391,0 -4.40372,1.20541 -7.62179,2.6787 -4.19234,1.91931 -8.03513,2.80513 -13.55531,3.12469 l -7.70426,0.44599 -2.07243,5.12531 c -2.70708,6.69485 -5.01947,17.81553 -5.04128,24.24432 -0.0395,11.65415 5.31243,32.17981 11.66322,44.73042 1.34964,2.66719 2.25127,5.05205 2.00363,5.29969 -0.811,0.811 -11.08126,-12.30997 -15.98572,-20.42287 -8.8592,-14.65478 -12.33424,-29.03596 -11.41168,-47.22625 1.37753,-27.16052 16.08189,-50.23002 43.85574,-68.80472 11.87482,-7.94169 17.85745,-16.51045 17.85745,-25.57675 0,-6.03096 -1.30458,-8.43002 -5.54837,-10.20319 -6.92934,-2.89526 -13.26234,-0.91194 -22.45163,7.03122 -6.42668,5.55518 -11.15811,8.09048 -13.45426,7.20937 -1.97073,-0.75624 -4.54574,-6.5658 -4.54574,-10.25578 0,-1.46524 -0.9367,-4.1797 -2.08156,-6.03212 -3.68837,-5.96791 -10.19234,-4.13866 -21.91844,6.16459 -10.96777,9.63694 -19.8461,12.66718 -30.63073,10.4545 -8.46256,-1.73626 -15.76441,-5.63307 -20.9567,-11.18404 -5.62093,-6.00923 -7.66851,-10.69975 -7.79191,-17.84942 -0.14894,-8.62864 4.33058,-16.65887 16.17686,-28.99954 5.33637,-5.55907 10.00835,-10.86042 10.3822,-11.78076 1.13386,-2.7914 0.82852,-12.53228 -0.46515,-14.83937 -1.87107,-3.33678 -5.24702,-5.59091 -17.71457,-11.82806 -6.325,-3.16421 -14.04918,-7.53581 -17.16484,-9.71468 -11.59119,-8.10601 -21.83516,-27.72903 -21.83516,-41.82673 0,-6.94815 1.51231,-8.83938 11.93675,-14.92758 13.94978,-8.14711 17.26296,-12.60326 24.56325,-33.03694 5.08451,-14.23166 8.80829,-21.34619 14.17664,-27.08539 4.36226,-4.66361 7.22374,-6.70435 19.57336,-13.95928 4.15691,-2.44202 5.75,-3.97091 5.75,-5.51827 0,-5.19467 -12.46783,-44.73271 -18.16098,-57.59218 -8.00856,-18.08942 -9.12764,-19.85273 -12.57432,-19.81308 -1.52058,0.0175 -3.63821,0.6925 -4.70583,1.5 -2.62278,1.98377 -5.33028,1.8519 -5.78592,-0.2818 -0.63779,-2.98671 1.13724,-9.14747 3.89357,-13.51378 l 2.63701,-4.17729 -2.26552,-6.6545 c -3.45694,-10.15411 -2.51342,-9.7535 -13.96431,-5.92904 -5.53783,1.84957 -10.37521,3.05643 -10.74972,2.68192 -0.81924,-0.81924 9.17612,-10.65731 10.82769,-10.65731 0.69668,0 0.49873,0.72883 -0.49668,1.82874 -2.59756,2.87027 -2.11528,4.50232 1.09501,3.70554 7.8702,-1.95334 10.52883,-5.76766 4.42813,-6.353 l -3.32187,-0.31872 2.54571,-2.35928 c 2.50774,-2.3241 2.52356,-2.4312 1.06091,-7.18128 -2.61058,-8.4781 -2.59545,-9.97191 0.0442,-4.35749 2.8098,5.97645 3.86292,6.99717 7.24297,7.02018 2.87174,0.0195 2.87174,1.34952 0,3.29798 -1.76423,1.19703 -1.99062,1.79579 -1.04862,2.77336 0.95692,0.99304 2.49738,0.80896 7.5705,-0.90465 3.50301,-1.18326 7.13603,-2.15138 8.07337,-2.15138 2.27536,0 3.65475,-3.95389 3.65475,-10.47597 0,-4.31782 0.89669,-7.20051 4.66315,-14.99117 l 4.66315,-9.64539 0.60602,-13.879573 c 0.33332,-7.633766 0.93111,-14.204662 1.32844,-14.601991 0.39733,-0.39733 0.60761,7.786297 0.46728,18.185839 l -0.25515,18.908255 -3.48644,5.41171 c -2.61442,4.05813 -3.48645,6.4967 -3.48645,9.74959 0,3.84192 0.49657,4.79179 4.34305,8.30782 4.0791,3.72867 4.30303,4.20681 3.68456,7.86744 -0.61695,3.65171 -0.33207,4.26853 4.51712,9.78047 8.17058,9.28728 30.09922,42.84239 37.46689,57.33165 3.69162,7.25996 7.28436,13.41954 7.98387,13.68796 0.6995,0.26843 3.4693,-0.86407 6.1551,-2.51666 2.6858,-1.65259 9.82566,-5.12071 15.86634,-7.70693 10.85007,-4.64527 11.11628,-4.70242 21.98307,-4.71961 20.18089,-0.0319 33.65345,5.40895 47.17588,19.05192 8.77279,8.85099 11.33725,9.73484 11.30881,3.89765 -0.008,-1.72865 -0.44094,-3.81801 -0.96116,-4.64301 -0.52021,-0.825 -10.40162,-10.99256 -21.95868,-22.59457 -23.55294,-23.64455 -26.03748,-27.24183 -26.05508,-37.72421 -0.005,-3.20033 1.087,-10.17533 2.42749,-15.5 4.67238,-18.55956 5.94559,-27.26832 5.98009,-40.90414 0.024,-9.49413 0.32239,-12.73706 1.05805,-11.5 0.58499,0.98368 1.0246,8.58789 1.0246,17.72292 0,15.90715 -0.0247,16.08323 -4.25,30.34191 -4.71802,15.92127 -5.11756,20.65 -2.27409,26.91444 2.94775,6.49417 6.4768,10.59815 16.44618,19.12547 12.14064,10.38452 37.63169,34.70888 39.82132,37.99875 2.69088,4.04298 2.14218,9.16245 -1.96363,18.32099 -3.59019,8.00841 -3.72424,8.71784 -3.83536,20.29844 -0.0633,6.6 -0.25645,14.925 -0.42914,18.5 -0.26704,5.52812 -0.42292,4.78001 -1.04254,-5.00341 -1.28073,-20.22181 -3.34212,-26.12053 -8.09164,-23.15441 -2.17754,1.3599 -4.8811,1.52529 -4.8811,0.29861 0,-0.47257 1.76851,-2.86834 3.93002,-5.32395 l 3.93002,-4.46474 -2.49518,-4.42605 c -3.26344,-5.78883 -9.89501,-12.59006 -14.69277,-15.06864 -3.75477,-1.93977 -3.83747,-1.94101 -4.32804,-0.0651 -0.48271,1.8459 -0.61899,1.85189 -3.91369,0.17215 -1.87747,-0.95718 -6.67985,-4.52753 -10.67197,-7.9341 -3.99211,-3.40657 -9.38093,-7.28201 -11.97515,-8.61208 -5.01742,-2.57246 -11.18832,-3.18992 -12.39339,-1.24008 -0.85798,1.38824 0.26603,2.25301 11.61015,8.93244 4.675,2.75264 9.84962,6.09762 11.49915,7.43329 2.63114,2.13051 2.84587,2.67393 1.75,4.4287 -1.70433,2.72906 -1.56988,6.56375 0.29552,8.42915 2.61575,2.61575 9.06509,4.09702 12.00533,2.75736 3.70187,-1.68668 4.28083,-1.36824 1.58922,0.8741 -4.88834,4.07239 -13.94844,1.06091 -16.71282,-5.55517 -1.65116,-3.95178 -4.46643,-4.543 -9.42437,-1.97915 -7.82884,4.04848 -17.00203,23.99641 -17.00203,36.97248 0,13.29665 4.10399,21.93016 15.1962,31.96803 8.70429,7.87693 16.90669,11.73919 26.19708,12.33541 12.71609,0.81607 19.58117,-2.83246 24.53026,-13.0369 2.65271,-5.46958 3.02718,-5.86841 3.04013,-3.23794 0.008,1.65 -1.77552,6.825 -3.96367,11.5 -2.18815,4.675 -3.9833,9.99464 -3.98922,11.82143 -0.0102,3.13392 -0.10733,3.22487 -1.72112,1.61109 -2.09355,-2.09355 -7.50629,-4.43252 -10.25754,-4.43252 -3.03587,0 -2.65178,5.22612 1.11577,15.18178 2.47635,6.54368 3.13706,9.81155 3.0971,15.31822 -0.0733,10.10508 -2.7464,16.2227 -12.24722,28.029 -4.41316,5.48405 -9.14303,12.19685 -10.51084,14.91734 -2.66289,5.29633 -3.26535,12.11896 -1.40132,15.8694 0.59709,1.20134 5.52281,6.45926 10.94605,11.68426 5.73674,5.52705 10.12716,10.60916 10.49824,12.1522 0.49217,2.04653 -0.1806,3.84196 -2.94604,7.86221 -1.97112,2.86551 -3.58386,5.76477 -3.58386,6.44281 0,1.76727 3.31133,4.5163 6.64255,5.51457 2.25297,0.67516 1.36607,0.87449 -4.19255,0.94226 -10.98731,0.13395 -12.2555,-3.06048 -4.95,-12.46852 2.475,-3.18731 4.5,-6.53802 4.5,-7.44601 0,-2.43209 -3.75531,-5.50524 -10.17819,-8.32931 -3.12301,-1.37315 -7.71185,-4.37119 -10.19742,-6.66232 -5.75278,-5.30272 -8.14268,-11.31169 -8.06794,-20.28533 0.0537,-6.4459 0.44502,-7.53989 8,-22.36427 7.72637,-15.16069 7.94355,-15.78194 7.94355,-22.72257 0,-5.78819 -0.52787,-8.21065 -2.79527,-12.82791 -3.69599,-7.52641 -10.33391,-14.76129 -17.98267,-19.59989 -17.98605,-11.37798 -25.84967,-23.34817 -36.00438,-54.80677 -12.47786,-38.65552 -26.81273,-66.03983 -47.41398,-90.57624 -8.61409,-10.25953 -17.63423,-23.14024 -18.81919,-26.87372 -1.1605,-3.65641 -5.02983,-2.30807 -11.94792,4.16347 -6.77678,6.33934 -7.50872,8.01485 -4.96918,11.37516 1.32041,1.74716 2.48987,1.95422 9.58967,1.69794 l 8.08587,-0.29188 -0.67555,2.69163 c -0.37156,1.48039 -1.31276,4.09132 -2.09156,5.80206 -1.4128,3.10342 -1.41468,3.09972 -0.83237,-1.63957 0.58014,-4.72166 0.56609,-4.75 -2.35561,-4.75 -4.09397,0 -7.28786,3.64547 -7.28786,8.31828 0,4.94339 6.47411,18.24835 18.57898,38.18172 15.47146,25.4772 16.75086,28.81185 27.49118,71.65326 11.17021,44.55612 18.89257,61.16283 38.52496,82.84674 5.74597,6.3464 8.76416,10.78029 11.9124,17.5 2.31913,4.95 9.00326,16.2963 14.85363,25.21399 12.84805,19.58423 20.70348,33.4584 24.12605,42.61116 3.03389,8.11333 3.51524,15.90969 1.14404,18.52983 -3.07651,3.39951 -1.08902,11.06657 3.88244,14.97712 6.38513,5.02255 9.59498,1.63138 10.40217,-10.98976 0.71031,-11.10631 1.9638,-12.57765 7.86131,-9.22759 4.32473,2.45665 13.87414,13.36682 17.21994,19.67372 2.90835,5.48228 2.43994,7.37045 -3.89761,15.71153 -2.89341,3.80812 -5.88879,9.27949 -7.23285,13.21154 -2.11755,6.19493 -2.42461,6.59348 -3.98902,5.17771 -2.67762,-2.42322 -4.16659,-7.03539 -3.46999,-10.74855 0.46329,-2.46959 2.80706,-5.56032 8.61441,-11.35989 8.7245,-8.71279 9.515,-10.83468 5.52341,-14.82626 -4.17231,-4.17231 -7.69661,-3.04386 -16.68924,5.34376 -3.49591,3.26072 -7.35114,6.23978 -8.56716,6.62013 -1.28144,0.40081 -4.24182,-0.0297 -7.04162,-1.02416 -8.29519,-2.94619 -12.90677,-0.37854 -18.52315,10.31335 -3.76212,7.16196 -7.72428,20.45209 -7.72428,25.90928 0,3.90396 1.73847,5.82115 6.74086,7.43384 5.21545,1.68137 5.38884,1.83838 4.29249,3.88694 -0.81978,1.53176 0.86388,3.50682 10.74729,12.60732 23.50381,21.64196 33.22274,26.8338 39.69498,21.20499 2.04769,-1.78085 3.08409,-4.43938 4.97045,-12.75 4.63713,-20.42953 11.28943,-36.0931 29.40654,-69.24091 5.48879,-10.0425 11.3966,-21.83193 13.12849,-26.19872 2.86894,-7.2338 6.87059,-22.25585 8.49143,-31.87657 l 0.64293,-3.81619 -31.80773,0.54571 c -34.00806,0.58347 -35.40105,0.15481 -10.96558,-3.37443 27.76566,-4.01022 45.30641,-10.20929 54.8513,-19.38497 6.50868,-6.25692 9.02075,-11.59246 9.5945,-20.37834 0.41626,-6.37414 0.15338,-7.87521 -2.23352,-12.75386 -3.56907,-7.29491 -8.66533,-10.71361 -23.40975,-15.70387 -17.87444,-6.04961 -26.46141,-12.72444 -32.24532,-25.06498 -3.15293,-6.72709 -3.39275,-7.94155 -3.3082,-16.75287 0.11288,-11.7633 2.16161,-18.89026 14.3731,-50 14.35779,-36.57762 15.62208,-41.936 11.71419,-49.64785 -3.46304,-6.83397 -10.01645,-13.8378 -19.51301,-20.85412 -4.42726,-3.27098 -7.87112,-6.12569 -7.65302,-6.34378 0.56416,-0.56416 11.23791,5.54409 15.98758,9.14919 6.82604,5.1811 13.58132,12.04031 15.45874,15.69656 3.19327,6.21886 3.26917,8.98906 0.50771,18.53039 -2.74097,9.47053 -3.84884,12.29006 -12.89593,32.82003 -5.83281,13.236 -10.56356,28.65278 -10.568,34.43942 -0.006,7.97323 8.03158,16.72733 18.58204,20.2383 3.46899,1.1544 7.51759,3.05097 8.99688,4.21458 2.95321,2.32299 2.84295,-0.0447 1.12728,24.20768 -0.19041,2.6916 0.42701,3.30563 7.03868,7 15.41676,8.61435 21.26253,16.45688 21.24073,28.49594 -0.007,3.60451 -0.63097,8.80366 -1.38765,11.55366 -2.05562,7.47077 -17.83631,48.06083 -21.51393,55.33674 -4.69196,9.28273 -4.23265,10.39416 4.91345,11.88934 4.125,0.67435 9.48162,1.97546 11.90359,2.89137 5.41841,2.04905 11.94659,7.79435 13.74928,12.10043 2.17337,5.19153 1.67841,15.44262 -1.15287,23.87686 -3.9573,11.78859 -3.66176,13.2498 4.05952,20.07084 3.60774,3.18711 6.12268,5.94035 5.58877,6.11832 -1.95985,0.65329 -12.25549,-3.00322 -15.0302,-5.33799 -5.69892,-4.79532 -6.22343,-10.08155 -2.63722,-26.57884 2.11374,-9.72364 1.01635,-14.60515 -4.53025,-20.15175 -2.96389,-2.96388 -4.50489,-3.78286 -6.6539,-3.53625 -3.92109,0.44995 -4.01468,3.25298 -0.34175,10.23533 3.58295,6.81129 3.87172,11.61588 0.94518,15.72583 -1.15492,1.62194 -7.44772,6.98733 -13.984,11.92309 -11.3892,8.60037 -14.91615,12.56575 -14.91615,16.77039 0,2.5125 2.52682,3.13573 12.78212,3.15264 13.20611,0.0218 21.21788,4.65354 21.21788,12.26648 0,4.57581 -1.28283,7.265 -5.22502,10.95322 -2.37715,2.224 -2.70612,3.0541 -1.84672,4.6599 0.61949,1.15752 2.57936,2.21937 4.8087,2.60532 2.06967,0.35831 4.88804,1.32706 6.26304,2.15277 l 2.5,1.5013 -2.5,-0.66164 c -1.375,-0.3639 -5.425,-0.89808 -9,-1.18706 -6.98655,-0.56476 -7.961,-1.24528 -7.98469,-5.5763 -0.0349,-6.37751 -5.42815,-11.70034 -11.85518,-11.70034 -1.61656,0 -6.67569,0.7088 -11.24251,1.57511 -10.36543,1.96629 -14.39549,1.33526 -16.41513,-2.5703 -2.27996,-4.40896 -1.81683,-9.20415 1.49751,-15.50481 3.2142,-6.1103 3.81162,-9.5 1.67431,-9.5 -2.19793,0 -5.36228,4.10657 -8.86139,11.5 -3.08044,6.50877 -3.30942,7.70175 -3.26307,17 0.0589,11.81019 2.29067,20.17363 8.90587,33.37394 8.41593,16.79359 12.54428,33.43135 12.54428,50.55503 0,10.65487 -2.06839,20.57415 -4.28874,20.56728 -0.66619,-0.002 -1.97741,-1.91456 -2.91383,-4.25 z M 395.9988,614.14468 c 1.78579,-1.78579 1.96365,-2.83013 1.40505,-8.25 -0.78274,-7.59449 -2.19267,-13.42853 -3.43017,-14.19334 -0.91816,-0.56746 -2.23767,3.51555 -3.47017,10.73795 -0.57228,3.35348 -0.95577,3.75 -3.62675,3.75 -4.17773,0 -9.12573,-2.25583 -16.51734,-7.53038 -7.43321,-5.30422 -13.16867,-12.93409 -19.89752,-26.46962 -6.28244,-12.63754 -8.87965,-16 -12.3586,-16 -3.10357,0 -5.14911,1.60634 -5.14911,4.04354 0,0.90395 4.33177,7.40331 9.62616,14.44302 23.96033,31.85895 45.27773,47.60955 53.41845,39.46883 z m -66.76307,-27.20539 c 4.06898,-4.35121 7.65732,-10.87846 7.6965,-14 0.0121,-0.9625 -0.93028,-2.70224 -2.09414,-3.8661 -1.68983,-1.68983 -2.92094,-2.00814 -6.11158,-1.58019 -8.00349,1.0735 -12.9926,9.43391 -10.70953,17.94629 1.50094,5.59624 1.62528,5.75 4.64984,5.75 1.76237,0 3.86936,-1.3632 6.56891,-4.25 z m -29.42803,-9.11235 c 7.10677,-2.88773 23.66797,-13.87501 25.18416,-16.70804 0.85662,-1.60061 0.75191,-2.60181 -0.4666,-4.46148 -2.23635,-3.41311 -1.98068,-3.73131 1.53663,-1.91243 6.25652,3.23537 10.24254,-0.75525 6.3316,-6.33891 -4.75511,-6.78885 -17.83451,-6.88303 -13.59712,-0.0979 1.66567,2.66717 1.48872,2.83227 -1.73238,1.61644 -4.79458,-1.80975 -10.89168,1.2302 -18.37261,9.16038 -6.22985,6.60397 -11.73719,15.66024 -11.73719,19.30063 0,2.61135 5.65715,2.36546 12.85351,-0.55869 z m -53.55569,-89.65727 c 1.84474,-1.45107 2.88732,-3.63281 3.70347,-7.75 2.92795,-14.77041 3.94635,-16.30019 9.19081,-13.80593 1.81935,0.86527 7.09524,4.7174 11.72421,8.56028 8.82356,7.32513 13.2963,9.15069 17.60733,7.18645 3.46426,-1.57842 5.38721,-5.09769 6.62498,-12.12465 0.85714,-4.86607 1.8089,-6.93739 4.35983,-9.48831 3.89791,-3.89791 10.44286,-5.80076 16.90533,-4.91498 6.37594,0.87392 5.85799,-1.84267 -1.35806,-7.12293 -2.56579,-1.87748 -4.68679,-2.52031 -8.31574,-2.52031 -6.49609,0 -7.69976,0.79045 -13.63976,8.9572 -2.79329,3.84043 -6.21805,7.72912 -7.61057,8.64154 -3.65342,2.39381 -9.26822,1.32981 -19.4287,-3.68173 -6.69127,-3.30039 -10.3426,-5.99739 -16.71887,-12.34915 -7.09615,-7.06887 -8.38511,-8.90365 -9.90354,-14.09721 -2.47675,-8.47135 -2.26278,-21.33398 0.4753,-28.57247 1.16544,-3.081 5.56265,-11.39754 9.77158,-18.4812 5.95321,-10.0193 7.75572,-13.95263 8.11699,-17.71238 0.45683,-4.75434 0.37645,-4.91739 -4.93909,-10.0188 -2.97192,-2.85219 -9.44445,-7.46346 -14.3834,-10.24727 -10.03308,-5.65508 -13.47992,-9.59014 -13.47992,-15.38931 0,-5.21847 6.5961,-18.08144 13.99898,-27.29922 5.8974,-7.34322 9.0493,-9.85731 7.52216,-6 -5.35911,13.53624 -1.65209,26.53392 16.87678,59.1738 9.31406,16.40735 9.42563,19.11356 1.19427,28.96585 -5.95953,7.1331 -7.11477,15.65372 -3.55505,26.2206 3.84685,11.41921 11.74499,21.87732 18.45837,24.44119 6.38346,2.43786 16.65267,1.58927 23.94537,-1.97871 5.83987,-2.85719 11.55912,-8.75717 11.55912,-11.9244 0,-1.71264 -0.55604,-1.83665 -5.75,-1.28233 -15.50095,1.65433 -22.08528,1.84347 -25.45541,0.73122 -7.66048,-2.52818 -15.4176,-14.23968 -12.97805,-19.59391 0.65675,-1.44142 3.59177,-3.69023 7.18094,-5.50204 6.48568,-3.27396 9.99226,-7.53355 9.99878,-12.14593 0.006,-4.33522 -3.93674,-15.78138 -8.56195,-24.85534 -2.86447,-5.61968 -7.06975,-11.54975 -12.41003,-17.5 -5.31037,-5.91693 -9.32393,-11.56923 -11.71623,-16.5 -3.27442,-6.74888 -3.6469,-8.35127 -3.71928,-16 -0.0728,-7.69504 0.22151,-9.07839 3.10788,-14.60753 3.61418,-6.92333 3.16238,-8.39247 -2.58092,-8.39247 -5.97558,0 -11.14522,3.39561 -18.61341,12.22597 -13.86121,16.38944 -23.6071,26.6788 -28.75741,30.36103 -7.63753,5.46048 -12.65242,10.40554 -14.82964,14.62316 -5.18616,10.04639 -0.028,17.48251 22.16423,31.95217 12.74832,8.31212 15.28637,11.12635 18.05391,20.01849 3.54408,11.38714 2.51048,24.08445 -4.20595,51.66834 -4.33625,17.80865 -4.36998,20.2426 -0.39009,28.15084 5.08041,10.09504 14.72207,14.73017 20.76045,9.98038 z M 363.75419,359.98929 c 1.71093,-1.71093 1.48277,-8.61384 -0.47459,-14.35838 -1.72001,-5.04794 -8.65467,-12.48895 -33.09871,-35.5155 l -9.10168,-8.57388 -8.56905,-17.92612 c -12.85657,-26.89544 -15.01244,-30.89035 -16.86234,-31.2466 -2.62649,-0.50582 -2.14885,4.44077 1.35205,14.00226 7.98695,21.81362 18.19012,38.25164 31.85352,51.31822 25.41472,24.30461 27.09899,26.37083 28.4125,34.85577 0.60314,3.89619 3.08111,8.64423 4.51135,8.64423 0.42732,0 1.31695,-0.54 1.97695,-1.2 z M 206.43112,181.01785 c 2.88701,-1.31541 4.37926,-5.37237 2.62233,-7.1293 -0.83204,-0.83204 -1.6352,-0.85564 -2.87678,-0.0845 -2.16219,1.34285 -4.53899,6.06413 -3.71997,7.38934 0.7718,1.24879 0.85666,1.24504 3.97442,-0.1755 z m 13.54011,-26.46292 c 6.77328,-6.11925 6.20038,-10.38406 -1.38948,-10.34368 -4.22016,0.0224 -11.82524,2.87084 -13.07828,4.89831 -1.03486,1.67443 0.31132,6.63279 2.58582,9.52435 1.91769,2.43795 2.11543,2.47719 4.99059,0.99038 1.64658,-0.85148 4.74769,-3.13269 6.89135,-5.06936 z"
       id="path850"
       inkscape:connector-curvature="0" />
  </g>
</svg>
