<?xml version="1.0" encoding="UTF-8" standalone="no"?>
<!-- Created with Inkscape (http://www.inkscape.org/) -->

<svg
   xmlns:dc="http://purl.org/dc/elements/1.1/"
   xmlns:cc="http://creativecommons.org/ns#"
   xmlns:rdf="http://www.w3.org/1999/02/22-rdf-syntax-ns#"
   xmlns:svg="http://www.w3.org/2000/svg"
   xmlns="http://www.w3.org/2000/svg"
   xmlns:sodipodi="http://sodipodi.sourceforge.net/DTD/sodipodi-0.dtd"
   xmlns:inkscape="http://www.inkscape.org/namespaces/inkscape"
   version="1.1"
   id="svg823"
   width="192"
   height="235.2"
   viewBox="0 0 192 235.2"
   sodipodi:docname="fitball.svg"
   inkscape:version="0.92.5 (2060ec1f9f, 2020-04-08)">
  <metadata
     id="metadata829">
    <rdf:RDF>
      <cc:Work
         rdf:about="">
        <dc:format>image/svg+xml</dc:format>
        <dc:type
           rdf:resource="http://purl.org/dc/dcmitype/StillImage" />
        <dc:title></dc:title>
      </cc:Work>
    </rdf:RDF>
  </metadata>
  <defs
     id="defs827" />
  <sodipodi:namedview
     pagecolor="#ffffff"
     bordercolor="#666666"
     borderopacity="1"
     objecttolerance="10"
     gridtolerance="10"
     guidetolerance="10"
     inkscape:pageopacity="0"
     inkscape:pageshadow="2"
     inkscape:window-width="1337"
     inkscape:window-height="938"
     id="namedview825"
     showgrid="false"
     inkscape:zoom="2"
     inkscape:cx="64.40332"
     inkscape:cy="72.999622"
     inkscape:window-x="245"
     inkscape:window-y="0"
     inkscape:window-maximized="0"
     inkscape:current-layer="layer3" />
  <g
     inkscape:groupmode="layer"
     id="layer3"
     inkscape:label="Layer 1">
    <path
       style="fill:#f36109;stroke-width:0.47999999;fill-opacity:1"
       d="m 65.243203,232.42457 c -1.20824,-0.39147 -2.60937,-1.16766 -3.11363,-1.72485 -0.90261,-0.99738 -0.90248,-1.02359 0.009,-1.68974 0.509,-0.37216 1.27807,-0.67665 1.70909,-0.67665 1.4452,0 8.744548,-1.89457 12.05876,-4.26137 4.02676,-2.87566 10.746021,-3.17793 8.968013,-8.29473 -3.541926,-19.19028 -22.143943,-52.43372 -22.143943,-52.43372 0,0 0.65683,0.3444 2.26443,3.69369 1.988599,3.05221 3.630763,6.46073 4.95663,9.25865 1.556145,4.39578 12.789005,36.16681 18.11443,38.85391 1.44402,0.41979 3.584877,0.98153 4.582857,0.89912 1.59772,-0.13194 0.234881,-9.86464 0.174421,-10.92126 -3.292879,-17.43414 -2.058408,-22.36944 -12.882638,-38.84409 -1.243563,-8.34156 18.74212,-10.72196 22.155307,-17.10425 24.78857,-19.04872 52.93923,-14.98306 69.92699,2.63753 7.36121,8.92167 11.99669,20.21789 11.60341,32.59651 -1.01841,14.82622 -5.15861,26.02276 -17.10995,36.46677 -11.90737,10.75076 -36.23142,13.02998 -51.19015,6.87043 -11.88199,-6.29895 -14.91672,-11.02075 -20.836467,-19.81719 -0.136795,2.45428 0.58117,4.42998 0.8285,6.48 0.17479,1.452 0.86791,4.152 1.54027,6 1.39231,3.82681 1.76458,9.80181 0.67872,10.89344 -0.44165,0.444 -3.16895,0.71858 -9.36,0.94237 -4.80522,0.1737 -11.43676,0.44438 -14.73676,0.6015 -4.61999,0.21998 -6.50526,0.12199 -8.19679,-0.42607 z m 32.51303,-78.0143 c 1.53901,-1.82901 1.12742,-1.81582 -1.58562,0.0508 -4.415492,2.89121 -9.659011,4.38196 -13.96689,7.46191 -3.149381,3.0069 -0.719756,4.50841 0.0811,7.42725 2.11933,2.63891 3.911464,5.32271 5.86347,8.09285 2.812178,-8.19019 4.087049,-15.9185 9.60794,-23.03281 z m -68.63681,62.95824 c -2.85575,-2.70298 -4.16642,-3.55321 -7.39947,-4.8 -2.16094,-0.83335 -4.14082,-1.51518 -4.39974,-1.51518 -0.71225,0 -2.53245,-1.9052 -4.12726,-4.32 -1.96593,-2.97672 -2.63295,-4.63231 -2.63295,-6.53511 0,-1.30489 0.18906,-1.62489 0.96,-1.62489 1.232664,0.52829 2.442777,1.29376 3.6,2.03363 2.29863,1.53743 6.45296,2.68875 11.04,3.05961 3.30406,0.26713 3.41593,0.23773 6.72,-1.76591 5.27752,-3.15794 7.657871,-7.23088 10.79193,-11.96733 0.44096,-0.66 1.85037,-3.144 3.13203,-5.52 1.28166,-2.376 3.80308,-6.46121 5.60316,-9.07825 1.871951,-2.01012 2.751904,-5.18364 4.47167,-7.0005 1.04496,-1.0907 3.3123,-7.77962 3.04739,-8.99015 -0.26046,-1.19022 1.65503,-3.73043 6.25963,-8.30107 3.17691,-3.1535 6.36711,-6.91185 8.19671,-9.65648 3.631255,-5.10745 8.769792,-10.07303 12.73747,-14.19057 0.792,-0.55636 2.38263,-1.88568 3.53473,-2.95406 1.1521,-1.06838 3.22752,-2.41202 4.61205,-2.98587 1.53256,-0.63522 2.82056,-1.55672 3.29249,-2.35564 C 96.97744,104.30189 91.942176,96.840055 91.202627,83.1367 91.550643,79.547207 90.0222,77.237806 88.679993,74.669863 c -5.459554,-5.372988 -3.437009,-8.975205 -1.32,-13.559948 0,-0.806217 -1.6677,-0.958324 -10.8746,-0.991843 -3.73704,-0.01363 -6.6951,-0.185438 -6.57346,-0.381849 0.27253,-0.440074 33.541887,-0.06239 35.208057,0.3997 1.33029,0.368928 2.88,1.556064 2.88,2.206172 -3.2778,-1.568521 -5.98005,-1.857223 -8.506177,-1.940516 l -5.55182,-0.176236 c 3.775029,5.531834 10.975067,7.676887 16.937997,9.503424 2.23902,0.291093 4.20484,0.531198 6.49553,0.971356 0.92412,0.231941 1.12401,-0.01848 1.63731,-2.051299 0.88226,-3.494021 1.20072,-13.812729 0.53068,-17.195491 -0.41292,-1.947714 -0.69175,-3.951035 -1.17892,-5.870285 -0.0578,-0.06066 -1.06354,0.06284 -2.23488,0.274439 -2.15855,0.389933 -2.25309,0.523026 -1.58818,2.235846 0.26955,0.694368 -0.20937,0.461938 -1.73083,-0.84 -2.02912,-1.736349 -2.232,-1.799986 -5.73711,-1.799607 -3.98761,4.31e-4 -8.791227,0.868985 -13.526357,2.445733 -4.9805,1.65845 -13.87775,2.196103 -30.18724,1.82418 -5.55139,-0.126596 -7.03028,0.0067 -10.32,0.930264 -2.93389,0.823656 -5.992,1.182076 -12.95999,1.51895 -13.35602,0.645715 -14.42326,1.522261 -19.973553,2.635541 -4.156319,1.164454 -8.327901,2.926413 -11.7064467,4.490837 -0.264,0.117897 -0.0861,-0.229772 0.39532,-0.772599 1.2499937,-1.252731 2.9521047,-1.521868 4.5035097,-2.110497 0.73764,-0.302247 1.67484,-0.616402 2.08266,-0.698127 8.37235,-3.015211 15.90125,-3.517043 21.33851,-3.817939 8.99424,-0.493886 12.41453,-0.872678 15.59999,-1.727664 3.60336,-0.967157 4.97721,-1.077336 11.76,-0.943138 4.224,0.08357 9.3,0.170746 11.28,0.193724 4.5025,0.05225 15.44227,-1.276149 18,-2.18571 1.056,-0.375526 3.36744,-0.953004 5.13654,-1.283284 1.769077,-0.33028 3.550387,-0.848044 3.958447,-1.150586 0.45765,-0.33931 0.86068,-1.699558 1.05185,-3.550078 l 0.70992,-3.2 h -3.19804 c -3.280474,-0.08786 -5.094057,-2.003151 -5.22422,-5.595161 1.475619,0.635526 0.477937,1.741247 1.092233,2.859886 3.939277,5.061821 8.979867,0.631691 10.753267,-0.483956 1.254,-1.054852 2.46258,-1.634494 2.28,-1.465195 -0.93333,0.865434 -3.46623,2.991093 -4.4951,3.924426 -0.33326,0.302314 -0.7513,0.966063 -0.97137,3.113967 -0.17546,1.712683 -0.42235,3.386683 -0.54864,3.72 -0.29703,0.783974 8.20114,0.842223 9.61511,0.06591 0.528,-0.28989 1.57663,-0.674748 2.33029,-0.85524 1.18075,-0.954843 -0.41567,-8.213223 0.74579,-11.804637 0.40023,4.084317 0.64816,8.262914 1.25194,10.800005 0.11954,0.528 0.77361,2.688 1.45346,4.8 1.74399,5.417731 2.02624,12.238402 0.78461,18.96 -5.21374,19.737417 -3.8647,29.512012 0.85413,34.301122 3.32322,4.58919 8.33918,8.99551 10.05085,14.4673 1.71167,5.47179 2.3183,12.11022 -5.015,18.89134 -10.95108,10.33045 -11.71045,-0.81916 -19.89612,-5.47152 -2.244,-1.26665 -4.85082,-3.08719 -5.79294,-4.04562 -11.598174,-1.58529 -20.709668,12.43461 -26.771597,20.38626 -4.666534,6.36912 -10.891764,15.61239 -10.78491,18.72129 -1.287493,-2.59863 2.733058,-7.18285 5.62186,-12.26251 0.992435,-2.94421 -4.629602,3.22285 -6.6308,5.50339 -0.35253,0.53408 -1.10853,2.80208 -1.67999,5.04 -0.972256,5.62525 -4.025231,9.89321 -7.03434,14.16966 -4.815247,6.83917 -8.100551,14.50444 -13.21734,21.1176 -1.61351,2.05315 -2.31655,3.37456 -2.24639,4.22224 6.07198,16.93608 32.860095,-22.25365 31.09445,-24.6944 4.771066,9.55257 -27.85746,31.89931 -29.14303,38.1127 -0.24014,1.53174 -2.01431,4.57826 -3.11529,5.34942 -2.11695,1.48277 -3.54303,0.9852 -7.2602,-2.5331 z M 118.55999,99.714463 c 0,-0.25239 -0.97115,-3.316676 -2.66606,-9.285714 -2.54042,-16.312185 1.73345,-11.959928 -20.343077,-12.569702 -7.621982,-0.323843 0.351231,23.070173 1.40914,28.545273 7.915887,2.67998 17.934887,-1.01877 21.599997,-6.689857 z m 12.80466,-34.22113 c -0.64031,-0.858 -1.45234,-2.1 -1.80452,-2.76 -0.69829,-1.435343 -0.6349,-1.229456 -0.90023,0.212784 -0.3213,1.74648 -0.89471,1.764235 -2.16122,0.06691 -0.86897,-1.164547 -0.97874,-2.020613 -0.97913,-7.635643 l -4.4e-4,-6.324048 -2.3618,-4.729391 c -2.0741,-4.153288 -2.38653,-5.176518 -2.56482,-8.4 -0.17911,-3.238213 -0.0281,-4.121669 1.28224,-7.49966 1.55668,-3.589839 2.44581,-7.269718 2.71557,-10.930949 0.22489,-2.737727 0.17607,-4.2 -0.14023,-4.2 -0.26688,0 -0.5978,-0.998715 -0.73538,-2.219367 -0.13759,-1.2206517 -2.87701,-2.6275659 -3.23576,-2.8548709 -1.01056,-0.640298 4.54545,-2.4107319 7.41848,0.3512862 5.16479,5.2719187 4.26878,12.8888437 5.21692,19.6029517 1.1611,5.920311 2.70042,12.048624 3.66105,14.575269 0.37636,0.989907 0.35231,1.286291 -0.0996,1.227925 -1.49285,-0.192792 -1.99805,0.02651 -1.41175,0.612806 0.3168,0.3168 0.576,1.653 0.576,2.969333 0,2.542099 -1.26096,8.387021 -1.97414,9.150667 -0.67253,2.095075 -0.15974,4.310932 -1.13103,6.211085 -0.54298,0.410347 -0.60981,0.94691 -0.29055,2.332915 0.22804,0.99 0.34036,1.8 0.2496,1.8 -0.0908,0 -0.68891,-0.702 -1.32922,-1.56 z M 17.971743,62.470715 c -0.410623,-0.565878 0.7619,-0.791164 2.27052,-0.499247 6.142143,-3.46318 7.848756,-0.804005 11.6276,-3.483063 0.10504,-0.17329 -1.08554,-0.328699 -2.64573,-0.345355 -1.56018,-0.01666 -3.03917,-0.232656 -3.28664,-0.48 C 25.657713,57.383407 26.1798,57.28 28.52376,57.28 c 2.041364,-0.03838 4.470083,0.454883 6.049443,0.06056 1.68574,-0.110455 3.431,-0.261086 8.51619,0.507994 6.75311,1.021334 15.79829,1.914076 22.1906,2.190172 1.98,0.08552 -0.072,0.08558 -4.56,1.25e-4 -4.488,-0.08545 -9.024,-0.275275 -10.08,-0.421829 -1.056,-0.146558 -4.188,-0.599856 -6.95999,-1.007332 -2.772,-0.407477 -5.63083,-0.818223 -6.35296,-0.912764 -1.4023,-0.183595 -4.91353,0.957269 -6.16484,2.003069 -0.41679,0.348336 -1.72504,0.766674 -2.1739,0.766674 -0.44885,0 -2.38245,-0.152 -4.78577,0.64 -5.06036,1.667616 -4.661797,1.615566 -6.23079,1.364049 z m 0.84986,-1.242187 c 0.22034,-0.661032 2.2984,-1.526083 2.2984,-0.956774 0,0.213115 -0.55941,0.642365 -1.24312,0.953889 -0.94899,0.432384 -1.19868,0.433071 -1.05528,0.0029 z m -8.14219,-2.431299 c 2.57973,-0.695932 5.74206,-1.480417 7.97209,-1.32553 1.69935,0.125482 2.75655,-0.01837 3.99695,-0.16394 1.529232,-0.179472 2.57782,0.380443 0.96987,0.975264 -0.886023,1.017372 -1.579725,0.236197 -2.084987,0.263641 0,-0.787353 -5.131644,0.282176 -7.179303,0.600002 -2.047659,0.317827 -4.15614,1.165955 -5.4186197,1.140645 -2.2797,-0.0457 -1.47324,-0.916647 1.7439997,-1.490082 z m 58.093913,-1.543896 c 1.32119,-0.567734 2.324214,-1.167734 1.973334,-0.6 -1.645333,1.662192 -3.296443,1.389332 -5.04003,1.4 z M 94.881863,30.853579 c -0.16046,-0.418135 -0.60977,-0.760246 -0.99847,-0.760246 -1.15661,0 -1.27938,-0.738773 -0.49004,-2.94889 0.54381,-1.522624 0.68528,-3.222178 0.52039,-6.251617 -0.25677,-4.71763 0.68668,-9.601945 2.17325,-11.2511277 2.43669,-2.703212 9.943327,-5.1241593 15.145197,-4.7150253 4.14619,0.5962169 6.53507,1.4526088 8.91429,5.583067 2.21837,2.28615 2.57388,3.424922 2.46816,7.906231 -0.0886,3.75597 -0.30298,4.795893 -1.45953,7.08 -1.39029,2.119874 -2.58246,4.579317 -4.55904,6.037362 -0.19295,0 -0.45352,-1.242 -0.57905,-2.76 -0.50555,-6.113305 -2.31039,-9.758994 -4.30329,-8.692428 -0.92258,0.02946 -1.47741,1.703996 -2.29668,2.596851 -1.35055,1.437591 -1.89706,1.489058 -1.89706,0.178654 0,-1.284327 -2.51229,-3.803077 -3.79332,-3.803077 -1.11164,0 -3.19637,-3.495305 -2.63067,-4.410626 -0.0809,-0.394679 -1.888278,-0.700249 -2.515577,-1.11881 -3.04431,-2.065928 -3.83726,-1.173329 -3.96364,4.461762 l -0.0568,2.532327 c 1.219969,-0.741082 2.581789,-1.21694 3.93617,-1.435036 0.70591,0.01894 0.28192,0.303702 -1.17617,0.789925 -2.28875,0.02989 -2.926397,0.75582 -2.775137,3.233791 0.0403,0.66 0.207307,2.407667 -0.199213,3.557777 -0.77341,2.188103 -0.65619,2.94889 0.45435,2.94889 0.88464,0 1.19755,1.484825 0.994507,2.844839 0.41662,1.430796 -0.708392,-0.766622 -0.912627,-1.604593 z m 16.565167,-3.417524 c 0.70787,-0.384362 1.62442,-1.065047 1.79235,-1.594114 0.31313,-0.986618 1.00061,-1.409527 1.00061,-0.548608 -1.04781,0.993312 -1.78432,2.832895 -3.20571,2.860782 -0.66807,-0.01468 -0.5707,-0.184059 0.41275,-0.71806 z m -0.2314,-3.011367 c -0.0306,-0.565755 0.33499,-1.686309 0.73099,-1.838268 0.396,-0.15196 0.92,0.13293 0.92,0.388645 -1.21355,0.811925 -0.67851,0.217454 -1.65099,1.449623 z M 96.308443,22.667442 c -0.741163,-0.411929 -0.69513,-0.670104 1.2,-0.619401 1.15036,0.03078 1.71357,0.141397 1.25157,0.245821 -1.202853,0.72884 -0.67755,1.531899 -2.45157,0.37358 z"
       id="path1376"
       inkscape:connector-curvature="0"
       sodipodi:nodetypes="cccsscccccccccccccccscscccccccccccscsccsccsccccccscccccccccccccsccccsssscscccccccsssccscccccssccccccccczccccccccccccccccccccccccscscccscccccccscccscccccccccssccsccssccccccccscczcccccccccccccccccccsscccccccsscccccccccccccccc" />
    <path
       style="opacity:0;fill:#f36109;fill-opacity:1;stroke:#f5a037;stroke-width:0.33333334;stroke-opacity:1"
       d="m 119.17155,136.54543 c 0,-0.37252 -6.20132,-4.48369 -10.33333,-6.85049 -4.1507,-2.37751 -7.30138,-4.54352 -9.403223,-6.46449 -1.026744,-0.93838 -2.177266,-1.69712 -2.573463,-1.69712 -0.937203,0 -2.866951,0.99852 -4.839181,2.50396 -0.870639,0.66457 -1.651461,1.13983 -1.73516,1.05613 -0.288049,-0.28805 2.721937,-2.46766 5.148479,-3.72815 2.664932,-1.38432 3.735878,-2.46687 3.735878,-3.77636 0,-0.46998 -0.389485,-2.13143 -0.865523,-3.69211 -0.549879,-1.80278 -0.799659,-3.24348 -0.684918,-3.95054 0.155915,-0.96079 0.09839,-1.08684 -0.42083,-0.92204 -0.519208,0.16479 -0.627382,-0.0722 -0.791232,-1.73334 -0.104388,-1.05832 -0.88157,-4.09171 -1.72707,-6.74087 -1.846281,-5.784868 -3.044353,-11.71106 -3.507575,-17.350012 -0.481691,-5.863786 -0.613178,-6.497527 -1.52601,-7.355089 -0.445597,-0.418616 -0.810175,-0.942478 -0.810175,-1.164138 0,-0.22166 -0.288884,-0.478563 -0.641965,-0.570896 -0.35308,-0.09233 -1.055551,-0.972327 -1.561046,-1.955544 -0.750381,-1.459533 -0.944227,-2.338327 -1.056068,-4.787666 -0.133499,-2.923653 -0.110738,-3.035979 0.89438,-4.41378 1.676684,-2.298373 1.433236,-2.562585 -2.635301,-2.86007 -0.825,-0.06032 2.7,-0.104027 7.833333,-0.09712 5.133333,0.0069 7.711846,0.06087 5.730028,0.11991 l -3.603304,0.107353 0.853304,1.014095 c 0.469318,0.557753 0.853305,1.302587 0.853305,1.655187 0,0.418869 0.231088,0.641092 0.666667,0.641092 0.366667,0 0.668284,0.1125 0.670261,0.25 0.002,0.1375 1.11862,0.8354 2.481429,1.550889 1.36281,0.715489 2.94252,1.72531 3.51046,2.244047 0.86245,0.787723 1.13488,0.879298 1.65311,0.555662 0.50302,-0.314146 1.14711,-0.189773 3.40261,0.657047 2.28568,0.85815 8.21065,2.075688 10.10104,2.075688 0.25238,0 0.60953,-0.4125 0.79366,-0.916667 0.26104,-0.714705 0.33973,-0.769785 0.35716,-0.25 0.0329,0.980125 -1.83027,8.854316 -2.44082,10.315553 -0.28847,0.690398 -0.42587,1.414826 -0.30535,1.609838 0.13812,0.223486 0.01,0.274322 -0.34652,0.137508 -0.89987,-0.345314 -6.95321,-1.275844 -13.541,-2.081547 -2.29017,-0.280094 -4.30767,-0.652982 -4.483328,-0.82864 -0.39017,-0.390169 -6.411989,-0.429478 -6.65059,-0.04341 -0.258996,0.419065 0.693248,9.200062 1.325621,12.224035 0.728333,3.482846 1.209683,5.354746 2.314308,8.999995 0.500001,1.65 1.175036,3.975 1.500077,5.16667 0.546211,2.00252 0.657489,2.1618 1.468787,2.1024 0.482791,-0.0353 2.185345,-0.84542 3.783445,-1.80018 1.5981,-0.95475 3.78055,-2.25518 4.84988,-2.88985 2.43428,-1.44477 4.46151,-1.98524 8.52526,-2.27285 1.75844,-0.12446 3.30139,-0.2855 3.42878,-0.357879 0.12739,-0.07238 -0.47261,-1.5894 -1.33333,-3.37116 l -1.56495,-3.239566 0.0747,-3.66879 c 0.1374,-6.743989 0.62081,-7.942936 0.60565,-1.502124 -0.0136,5.782237 -0.006,5.84813 0.92274,7.52238 0.51506,0.928977 1.94758,2.907834 3.18337,4.397459 2.04216,2.46161 3.21519,4.0246 5.56387,7.41349 3.32664,4.8 5.24726,11.98059 4.51728,16.88865 -0.42263,2.84157 -1.44107,5.36932 -2.82024,6.99978 -1.06082,1.2541 -5.64292,4.01401 -7.17191,4.31981 -0.72353,0.1447 -1.02126,0.36545 -0.90423,0.67042 0.096,0.25007 0.0292,0.45468 -0.1484,0.45468 -0.17758,0 -0.32287,-0.14456 -0.32287,-0.32124 z"
       id="path1380"
       inkscape:connector-curvature="0" />
    <path
       style="opacity:0;fill:#f36109;fill-opacity:1;stroke:#f5a037;stroke-width:0.33333334;stroke-opacity:1"
       d="m 119.17155,136.54543 c 0,-0.37252 -6.20132,-4.48369 -10.33333,-6.85049 -4.1507,-2.37751 -7.30138,-4.54352 -9.403223,-6.46449 -1.026744,-0.93838 -2.177266,-1.69712 -2.573463,-1.69712 -0.937203,0 -2.866951,0.99852 -4.839181,2.50396 -0.870639,0.66457 -1.651461,1.13983 -1.73516,1.05613 -0.288049,-0.28805 2.721937,-2.46766 5.148479,-3.72815 2.664932,-1.38432 3.735878,-2.46687 3.735878,-3.77636 0,-0.46998 -0.389485,-2.13143 -0.865523,-3.69211 -0.549879,-1.80278 -0.799659,-3.24348 -0.684918,-3.95054 0.155915,-0.96079 0.09839,-1.08684 -0.42083,-0.92204 -0.519208,0.16479 -0.627382,-0.0722 -0.791232,-1.73334 -0.104388,-1.05832 -0.88157,-4.09171 -1.72707,-6.74087 -1.846281,-5.784868 -3.044353,-11.71106 -3.507575,-17.350012 -0.481691,-5.863786 -0.613178,-6.497527 -1.52601,-7.355089 -0.445597,-0.418616 -0.810175,-0.942478 -0.810175,-1.164138 0,-0.22166 -0.288884,-0.478563 -0.641965,-0.570896 -0.35308,-0.09233 -1.055551,-0.972327 -1.561046,-1.955544 -0.750381,-1.459533 -0.944227,-2.338327 -1.056068,-4.787666 -0.133499,-2.923653 -0.110738,-3.035979 0.89438,-4.41378 1.676684,-2.298373 1.433236,-2.562585 -2.635301,-2.86007 -0.825,-0.06032 2.7,-0.104027 7.833333,-0.09712 5.133333,0.0069 7.711846,0.06087 5.730028,0.11991 l -3.603304,0.107353 0.853304,1.014095 c 0.469318,0.557753 0.853305,1.302587 0.853305,1.655187 0,0.418869 0.231088,0.641092 0.666667,0.641092 0.366667,0 0.668284,0.1125 0.670261,0.25 0.002,0.1375 1.11862,0.8354 2.481429,1.550889 1.36281,0.715489 2.94252,1.72531 3.51046,2.244047 0.86245,0.787723 1.13488,0.879298 1.65311,0.555662 0.50302,-0.314146 1.14711,-0.189773 3.40261,0.657047 2.28568,0.85815 8.21065,2.075688 10.10104,2.075688 0.25238,0 0.60953,-0.4125 0.79366,-0.916667 0.26104,-0.714705 0.33973,-0.769785 0.35716,-0.25 0.0329,0.980125 -1.83027,8.854316 -2.44082,10.315553 -0.28847,0.690398 -0.42587,1.414826 -0.30535,1.609838 0.13812,0.223486 0.01,0.274322 -0.34652,0.137508 -0.89987,-0.345314 -6.95321,-1.275844 -13.541,-2.081547 -2.29017,-0.280094 -4.30767,-0.652982 -4.483328,-0.82864 -0.39017,-0.390169 -6.411989,-0.429478 -6.65059,-0.04341 -0.258996,0.419065 0.693248,9.200062 1.325621,12.224035 0.728333,3.482846 1.209683,5.354746 2.314308,8.999995 0.500001,1.65 1.175036,3.975 1.500077,5.16667 0.546211,2.00252 0.657489,2.1618 1.468787,2.1024 0.482791,-0.0353 2.185345,-0.84542 3.783445,-1.80018 1.5981,-0.95475 3.78055,-2.25518 4.84988,-2.88985 2.43428,-1.44477 4.46151,-1.98524 8.52526,-2.27285 1.75844,-0.12446 3.30139,-0.2855 3.42878,-0.357879 0.12739,-0.07238 -0.47261,-1.5894 -1.33333,-3.37116 l -1.56495,-3.239566 0.0747,-3.66879 c 0.1374,-6.743989 0.62081,-7.942936 0.60565,-1.502124 -0.0136,5.782237 -0.006,5.84813 0.92274,7.52238 0.51506,0.928977 1.94758,2.907834 3.18337,4.397459 2.04216,2.46161 3.21519,4.0246 5.56387,7.41349 3.32664,4.8 5.24726,11.98059 4.51728,16.88865 -0.42263,2.84157 -1.44107,5.36932 -2.82024,6.99978 -1.06082,1.2541 -5.64292,4.01401 -7.17191,4.31981 -0.72353,0.1447 -1.02126,0.36545 -0.90423,0.67042 0.096,0.25007 0.0292,0.45468 -0.1484,0.45468 -0.17758,0 -0.32287,-0.14456 -0.32287,-0.32124 z"
       id="path1382"
       inkscape:connector-curvature="0" />
    <path
       style="opacity:0;fill:#f36109;fill-opacity:1;stroke:#f5a037;stroke-opacity:1"
       id="path1395"
       sodipodi:type="arc"
       sodipodi:cx="141.25"
       sodipodi:cy="183.7"
       sodipodi:rx="18.75"
       sodipodi:ry="14"
       sodipodi:start="0"
       sodipodi:end="4.5172437"
       sodipodi:open="true"
       d="m 160,183.7 a 18.75,14 0 0 1 -17.5312,13.97039 18.75,14 0 0 1 -19.81035,-12.15417 18.75,14 0 0 1 14.95576,-15.5505" />
  </g>
</svg>
