<?xml version="1.0" encoding="UTF-8" standalone="no"?>
<!-- Created with Inkscape (http://www.inkscape.org/) -->

<svg
   xmlns:dc="http://purl.org/dc/elements/1.1/"
   xmlns:cc="http://creativecommons.org/ns#"
   xmlns:rdf="http://www.w3.org/1999/02/22-rdf-syntax-ns#"
   xmlns:svg="http://www.w3.org/2000/svg"
   xmlns="http://www.w3.org/2000/svg"
   xmlns:sodipodi="http://sodipodi.sourceforge.net/DTD/sodipodi-0.dtd"
   xmlns:inkscape="http://www.inkscape.org/namespaces/inkscape"
   width="210mm"
   height="297mm"
   viewBox="0 0 210 297"
   version="1.1"
   id="svg1391"
   inkscape:version="0.92.5 (2060ec1f9f, 2020-04-08)"
   sodipodi:docname="fitness.svg">
  <defs
     id="defs1385" />
  <sodipodi:namedview
     id="base"
     pagecolor="#ffffff"
     bordercolor="#666666"
     borderopacity="1.0"
     inkscape:pageopacity="0.0"
     inkscape:pageshadow="2"
     inkscape:zoom="0.35"
     inkscape:cx="-84.285714"
     inkscape:cy="560"
     inkscape:document-units="mm"
     inkscape:current-layer="layer1"
     showgrid="false"
     inkscape:window-width="997"
     inkscape:window-height="405"
     inkscape:window-x="347"
     inkscape:window-y="340"
     inkscape:window-maximized="0" />
  <metadata
     id="metadata1388">
    <rdf:RDF>
      <cc:Work
         rdf:about="">
        <dc:format>image/svg+xml</dc:format>
        <dc:type
           rdf:resource="http://purl.org/dc/dcmitype/StillImage" />
        <dc:title></dc:title>
      </cc:Work>
    </rdf:RDF>
  </metadata>
  <g
     inkscape:label="Layer 1"
     inkscape:groupmode="layer"
     id="layer1">
    <path
       style="display:inline;fill:#ff6600;stroke-width:0.56208807"
       d="m 39.029572,296.92095 c 1.415564,-5.58803 2.26345,-11.65034 2.778799,-16.92412 3.47278,-13.80876 8.369487,-27.44563 11.052794,-41.51746 -0.0023,-2.18495 -0.306275,-2.9939 -1.674599,-4.45368 -1.071021,-1.14218 -6.055827,-7.10651 -5.591094,-7.06027 1.328449,0.13046 5.376933,4.79198 7.584955,6.42671 2.112994,1.60385 4.40784,1.21611 6.849968,0.84069 0.227422,-0.96245 1.296559,-2.03202 1.473106,-2.30873 0.714158,-0.54355 1.734621,-0.46383 2.601933,-0.69575 -2.410514,1.75285 -1.809199,3.03029 -1.796921,4.48672 5.280269,1.91463 7.18416,-1.46296 9.605936,-5.24015 2.960085,-4.86171 0.972602,-5.07811 -0.3615,-7.5231 -2.892031,-2.72387 -6.154956,-6.83111 -6.323502,-9.39466 0.352223,-2.12044 2.09205,-2.95519 3.513106,-4.40425 0.994053,-0.38121 1.595456,-0.17394 2.81044,0.96681 3.566504,4.95998 7.882794,7.50801 13.509981,9.1036 0.829827,0.007 0.899257,-0.18553 0.401795,-1.1161 -3.826149,-3.33699 -4.5477,-3.70343 -7.496334,-6.46584 -6.427922,-7.14985 -10.92918,-17.52479 -13.297067,-26.11501 -0.56834,-2.99665 -2.05039,-5.59368 -3.209497,-5.62398 -13.957652,-4.59006 -17.347145,-17.20069 -11.268968,-32.05409 2.422416,-4.88156 1.578875,-4.9475 0.843163,-7.131 -1.422955,-3.85591 -4.94248,0.33627 -7.466721,2.99071 -1.359323,2.15059 -4.770225,6.13391 -5.105112,5.26218 2.569579,-4.36394 5.76322,-9.02272 8.049991,-13.07692 1.416143,-2.83112 2.307747,-12.2481 2.975971,-9.45887 0.668211,2.78924 3.020964,6.64688 5.964279,8.80733 1.40817,0.27541 2.191206,-0.2493 3.38539,-1.44802 1.367874,-1.89824 1.886121,-3.76996 3.05362,-5.57122 0.753729,-1.68271 1.75332,-0.76243 2.247317,0.54065 -3.285232,9.01374 -9.423229,19.63915 -2.896626,27.82524 2.393512,2.79212 5.166903,3.31902 8.199694,3.62166 5.211795,-0.38556 9.428041,-5.68443 11.465199,-6.83748 2.037158,-1.15378 -0.986951,3.3857 -2.042346,4.91185 -4.240179,6.25103 -0.658499,21.92658 7.266793,24.3904 1.89811,0.029 1.768149,-1.29729 -0.295259,-3.03 -4.626898,-4.17551 -4.502968,-11.3274 -4.675543,-14.37622 15.730178,10.59933 29.831677,9.78501 38.827367,-12.63686 1.93087,-4.47933 3.58579,-10.57526 3.70749,-15.03545 0.21494,-8.67355 0.20813,-9.04404 -0.19569,-10.59296 -0.45093,-1.72994 -3.77959,-3.89257 -5.99102,-3.89257 -0.93173,0 -1.69218,-0.18988 -1.68976,-0.4218 0.007,-0.73344 2.76004,-1.73358 3.92959,-1.42774 2.19967,0.57544 3.73717,-1.15524 4.15032,-4.66994 0.22018,-1.87388 0.15176,-3.45628 -0.16321,-3.77139 -0.29844,-0.29859 -0.40412,-1.71344 -0.23467,-3.14436 0.20307,-1.71474 0.009,-3.31728 -0.56892,-4.70096 -1.57096,-3.75983 -2.62076,-2.45659 -2.62076,3.25351 0,1.96592 -0.25294,3.73068 -0.56212,3.92172 -0.30917,0.19133 -0.5621,-0.0435 -0.5621,-0.52906 -1.63562,-2.6072 -2.00685,-6.01333 -2.29727,-8.96506 0.37991,-4.863454 -1.17727,-5.30801 -1.99227,-7.518177 -8.91687,-8.681082 -2.95505,-4.952438 1.3496,-1.256699 2.85835,1.608778 5.03885,1.130594 7.99874,0.630523 2.55542,-1.622692 5.40632,-2.767493 7.94858,-4.235815 9.77696,-8.147963 16.06941,-17.997179 17.07779,-30.179336 -0.071,-4.537453 -0.27105,-5.635869 -1.25394,-6.885465 -1.28381,-1.632115 -3.23242,-1.967525 -3.74038,-0.64357 -5.55405,3.931715 -12.08113,6.841837 -17.6529,9.16405 -5.89588,2.792713 -12.42864,4.539046 -15.47253,3.816481 -5.7803,-1.544421 -7.78876,1.957812 -10.53462,5.870828 -1.540684,5.215955 -1.452425,10.480756 -2.341826,14.748606 -0.755035,0.421799 -1.668165,1.848231 -1.41339,3.417293 0.115958,2.044057 -0.373096,3.94534 -0.650672,5.796472 -0.501085,0.86244 -0.601389,0.685604 -0.615594,-1.078414 -0.01233,-1.53094 -0.488185,-2.721399 -1.127405,-2.721399 -2.729938,2.19089 -2.483917,6.597309 -8.215334,9.760662 -7.305424,2.53848 -2.037361,8.88838 0.958541,13.33032 -2.710397,-0.35368 -5.705691,-5.07986 -7.941802,-6.26582 -1.534306,-0.81316 -2.147653,1.3799 -3.85501,3.61834 -2.300485,3.01506 -8.750395,13.46408 -10.81773,12.81413 0,0 10.3274,-17.23881 10.685132,-17.74947 0.777935,-3.47543 -0.446875,-5.81186 -1.975641,-8.394113 -1.495762,-0.656615 -2.768551,-2.587322 -2.02043,-3.064201 0.621101,-0.395709 -0.04493,-2.56558 -0.962166,-3.132327 -5.739767,-12.970382 -5.136653,-23.896853 5.557843,-32.726651 -7.782403,11.064897 -9.178499,20.766701 -3.043169,30.172813 0.120307,-14.685407 1.781962,-17.956739 6.219328,-24.458817 1.479326,-1.432086 3.058505,-2.464262 4.625943,-3.645442 2.389482,1.459336 5.915373,12.335219 8.500737,14.985884 1.396865,2.36758 3.098815,2.390628 3.13869,0.04349 C 84.763829,56.918747 85.226634,47.627871 87.711956,34.208584 c 2.340491,-5.729793 5.446001,-10.845732 10.61766,-13.803976 1.1161,-0.465284 2.215164,-1.132044 2.442294,-1.484269 0.27105,-0.420348 0.41584,-0.331931 0.4215,0.256559 0.004,0.492824 -0.49732,1.353814 -1.11552,1.913895 -1.275976,1.155234 -1.506601,3.091449 -0.368166,3.091449 2.011306,-1.130594 3.776796,-2.334531 5.517086,-3.462807 3.28332,-1.87157 6.95369,-3.529485 10.18721,-4.882719 6.45892,-2.431504 10.06347,-0.807362 14.3477,-0.850845 10.50532,-1.474557 17.96148,0.840699 25.48493,12.080692 2.44572,4.479036 5.20794,7.9259 4.86287,15.140252 0,0 5.44003,4.052167 5.17057,5.849812 0,1.440783 0.11453,1.672701 1.19975,2.432808 4.63362,7.967501 4.01421,16.556397 -1.76185,23.435484 -0.33743,0.208726 -0.5621,-0.514565 -0.5621,-1.809096 0,-2.315978 -1.2667,-4.655005 -2.52083,-4.655005 -0.51297,0 -0.90027,1.036379 -1.15799,3.098989 -2.62141,11.382042 -8.58618,24.089199 -22.38218,23.38533 -19.67727,3.484261 -13.23478,15.549323 -6.66957,18.444233 0.85882,0.50007 0.82272,0.56819 -0.30918,0.58415 -0.75416,0.0102 -2.0148,0.85228 -3.06248,2.04521 -1.74242,1.98449 -1.7773,2.13291 -1.62572,6.92126 -0.89592,9.45627 0.0102,18.63974 0.17178,27.60333 1.00738,5.93662 4.12489,9.17593 7.83002,9.63672 0,0 -1.10639,4.7182 -1.93392,7.7024 -2.47951,8.45655 -4.06508,15.33447 -6.59192,23.12051 -2.95883,10.61745 -4.24703,23.07153 -2.07203,33.02336 3.31818,11.9872 4.73697,12.21666 12.31583,12.24101 -0.21394,-1.119 -3.67934,-2.49166 2.64608,-4.63631 6.32541,-2.14464 10.71442,-8.14622 12.82972,-10.86965 2.22479,-3.98491 4.47792,-9.70528 4.89635,-10.53192 0,0 4.70529,-12.79456 4.75327,-13.02648 0.25409,4.41005 -4.48758,18.3397 -7.12937,22.99064 -1.58884,2.12334 -3.30316,5.04927 -1.7904,7.99084 2.82654,8.20203 8.33153,16.21098 11.80278,23.17587 6.64501,15.36175 12.6688,19.72917 17.64573,47.02361 l -23.57346,-10e-4 c -15.66974,-0.001 -23.63818,-0.19569 -23.76643,-0.58125 -9.43761,-12.09735 -22.04786,-28.65347 -23.94514,-34.10931 0.70662,-3.23858 9.17928,-13.01284 12.44119,-18.53174 -6.22028,7.03113 -10.62778,15.82687 -16.53986,16.70279 -5.91212,0.87549 -12.595355,-2.17987 -16.791021,-4.82169 3.845037,3.57238 8.953991,4.94822 13.102451,7.64063 -3.063582,8.45454 -13.105031,24.3836 -18.536624,33.52242 -15.531976,0.32614 -29.493499,0.14495 -45.163465,-0.28409 z m 25.904356,-69.43894 c -0.228874,-0.56238 -0.157994,-1.27989 0.157268,-1.59471 0.789966,-0.78996 1.214084,0.13044 0.690097,1.49194 -0.406144,1.05813 -0.455861,1.06392 -0.847365,0.10143 z M 34.183396,213.39031 C 26.42201,203.66967 17.453193,193.68405 10.224737,185.15197 1.7322623,174.99474 -0.40848936,167.15333 2.0646425,161.3657 c 2.3491289,7.32684 1.2952554,11.83008 24.4479165,39.02915 6.853838,8.53773 13.599762,17.84963 19.082913,26.57057 -3.289784,-1.92013 -8.819812,-10.52815 -11.412076,-13.57511 z M 55.970517,209.685 c -0.97898,-0.34932 -0.928247,-0.42904 0.434988,-0.68994 0.848962,-0.16234 1.662424,-0.10153 1.807849,0.13044 0.403682,0.65372 -0.996806,1.0016 -2.242837,0.55806 z m 75.038853,-10.45249 c 0.30049,-0.78995 0.74286,-2.44816 0.54631,-3.64863 -0.46021,-2.80996 0.8765,-2.0813 2.0052,-0.95231 0.48616,0.48559 1.23017,-0.73778 2.30983,-1.44512 2.72952,-2.46078 5.19631,-4.6917 7.31514,-6.87143 2.61082,-2.70038 7.92074,-8.56251 8.1437,-8.33958 0.33351,0.33338 -8.54554,11.40032 -13.29676,16.28376 -2.37861,2.22047 -4.53199,4.70762 -6.20715,7.18219 -0.5998,0.49716 -3.92122,7.88805 -4.17649,7.22276 0.54313,-3.43093 1.90635,-6.69241 3.36022,-9.43178 z m 46.21889,-33.88697 c -12.2621,4.24843 -15.55593,29.20211 -15.55593,29.20211 0,0 0.75793,-13.87284 3.59175,-19.30578 2.83376,-5.43294 10.22951,-10.70759 11.96418,-9.89633 z M 36.966427,187.67812 c 0,0 -1.817561,-6.01622 -2.537228,-7.69818 -2.229387,-5.67705 -4.058255,-10.17203 -6.818166,-15.18216 -2.496947,-3.0913 -2.964795,-4.67805 -2.912455,-5.22205 6.236706,-2.367 9.802863,-6.40611 12.566934,-9.80977 0.231918,-0.23192 0.42151,0.23915 0.42151,1.04507 -1.779643,3.75357 -2.868754,6.46729 -4.817595,9.55193 -0.400345,0.76098 -2.454897,2.41135 -2.635067,3.04288 1.304822,2.43079 3.178202,5.92911 4.049891,8.57889 3.133732,8.75081 3.994289,16.29057 6.641473,24.91544 z M 151.01504,168.85488 c 0.36542,-2.75475 0.91477,-2.85344 2.76547,-2.6495 1.02711,0.11596 2.00601,-0.0145 2.17546,-0.2928 0.43021,-0.69575 -1.38063,-2.65066 -2.90056,-3.13059 -1.6064,-0.50731 -1.72571,-2.02507 -0.12612,-1.60689 0.98,0.25655 1.11988,0.0579 1.0058,-1.44368 -8.63615,-12.74833 -5.38516,-24.4523 1.10581,-29.97467 5.6657,-5.68153 11.89837,-5.58253 15.28314,-4.79663 3.38475,0.78563 6.21309,2.84289 8.72778,4.33309 1.28872,1.42483 2.52939,1.44657 2.52939,0.0435 -9.75169,-16.84122 -29.94234,-8.15651 -36.30702,6.86778 6.45876,-22.22849 35.43388,-23.93816 41.39068,0.68851 0.81198,0.50152 2.22373,-0.77982 2.22373,-2.01812 0,-0.56238 0.24336,-1.17263 0.54094,-1.35671 5.6901,-1.35817 9.71375,2.1748 13.95159,4.87314 0.36584,0.36529 0.81895,0.51168 1.0068,0.32325 -3.44178,-9.03056 -10.46339,-9.19507 -17.34366,-10.26262 2.07107,-1.25379 7.81765,-1.60645 11.80699,0.17105 16.62709,8.31219 12.37352,27.75942 6.53294,34.91421 -5.84059,7.15463 -18.16744,10.83804 -26.61799,3.13043 -2.24848,-2.34728 0.82664,-3.92621 4.40413,-7.4093 9.20746,-8.86836 8.50611,-10.20072 5.99317,-17.68192 -0.46022,-0.0435 -1.15306,-0.11596 -1.53945,-0.14495 -0.38642,-0.029 -0.72111,0.57544 -0.74386,1.34946 -0.0942,3.19509 -1.23989,8.96591 -3.7406,12.9543 -2.62229,3.44947 -10.91516,11.73064 -23.3566,8.96678 -4.79279,2.46802 -2.98519,7.70745 -7.24616,11.96574 -1.38223,-0.73923 -1.60799,-5.28596 -1.52185,-7.81284 z m -6.76137,-17.04864 c -1.62779,-4.60688 -0.24003,-12.32 0.0522,-12.50119 -0.48079,7.83938 6.69709,21.39868 6.69709,21.39868 0,0 -4.15958,-1.56732 -6.74957,-8.89749 z m 2.384,-28.5694 c -0.98391,-1.52486 -2.75106,-3.45034 -6.31981,-5.66703 -3.56873,-2.21668 -11.6218,-4.8988 -6.47107,-4.00317 5.15075,0.89578 18.23821,11.48147 18.23821,11.48147 -1.61324,2.81504 -4.68859,6.62703 -4.68859,6.62703 0.86781,-3.94042 0.22511,-6.91359 -0.75879,-8.4383 z M 49.915255,118.811 c 0.0069,1.95346 -0.147555,3.91476 -0.467747,5.84184 -1.757509,-2.94693 -0.05073,-4.68775 0.467747,-5.84184 z m 65.905845,3.87794 c 0.89128,0.48557 -3.45385,2.99027 -4.58637,0.52036 z M 49.327535,97.80757 c 0,0 6.674668,-6.444243 20.445583,-1.823301 0.732568,0.731987 -6.419442,-0.505869 -10.339779,-0.4189 -5.473585,0.115959 -10.105804,2.241911 -10.105804,2.241911 z"
       id="path255"
       sodipodi:nodetypes="cccsscccccccccccccccccccczcccccczccccccsssssssssscccccccscccccccscccsssccscccccccccssccccccccccsscccssccccccczcccccccsccczccccccccccccccccccccccscccsccccccczcscccscccccscsssccccccccccccczcccsscccccscscsczzcczcccccccccsc"
       inkscape:connector-curvature="0" />
  </g>
</svg>
