<?xml version="1.0" encoding="iso-8859-1"?>
<!-- Generator: Adobe Illustrator 18.0.0, SVG Export Plug-In . SVG Version: 6.00 Build 0)  -->
<!DOCTYPE svg PUBLIC "-//W3C//DTD SVG 1.1//EN" "http://www.w3.org/Graphics/SVG/1.1/DTD/svg11.dtd">
<svg version="1.1" id="Capa_1" xmlns="http://www.w3.org/2000/svg" 
	 viewBox="0 0 320.699 320.699">
<g>
	<path d="M168.475,87.383c0,0,17.145,13.715,42.625,13.715c25.896,0,54.882-13.015,75.648-33.965
		c0.748-0.753,0.937-1.896,0.474-2.852c-4.143-8.531-16.079-21.91-24.098-27.012c-1.113-0.707-2.584-0.429-3.361,0.637
		c-13.501,18.509-33.991,29.124-56.217,29.125c-25.089,0.002-48.245-12.974-61.943-34.709c-0.62-0.983-1.835-1.407-2.931-1.03
		c-1.098,0.38-1.79,1.465-1.671,2.619C139.14,54.694,151.153,74.755,168.475,87.383z"/>
	<path d="M276.548,115.241c-9.87-5.427-19.316-8.178-28.077-8.178c-25.498,0-41.905,22.23-57.773,43.729
		c-14.234,19.284-27.678,37.499-46.124,37.505c-0.003,0-0.006,0-0.009,0c-7.024,0-14.423-2.579-22.529-7.869
		c28.166-17.16,41.189-41.272,34.924-65.084c-6.786-25.794-33.893-43.808-65.918-43.808c-10.389,0-21.004,1.86-31.551,5.529
		c-0.804,0.28-1.41,0.95-1.609,1.777l-12.201,50.773c-0.232,0.965,0.129,1.976,0.92,2.576c0.791,0.6,1.862,0.676,2.728,0.191
		c23.924-13.331,41.342-16.129,51.741-16.129c18.756,0,27.299,8.477,27.3,16.354c0.001,12.199-18.418,24.539-53.624,24.938v-1.821
		h-5.812v3.129c-0.15,0.326-0.237,0.681-0.237,1.046c0,1.17,3.714,14.076,6.802,23.26c7.331,21.8,10.773,23.626,13.424,23.626
		c0.319,0,0.637-0.042,0.946-0.125c5.678-1.533,11.715-2.344,17.46-2.344c10.19,0,34.481,2.745,39.953,28.175
		c2.511,11.668,0.413,21.758-6.233,29.986c-12.435,15.396-37.548,20.858-55.275,20.858c-39.264,0.001-64.961-25.635-80.871-80.678
		c-0.354-1.225-1.579-1.989-2.831-1.768c-1.257,0.22-2.147,1.351-2.065,2.624c2.376,36.951,14.176,66.994,34.123,86.881
		c17.008,16.957,39.703,26.296,63.904,26.296c31.326,0,59.469-15.41,71.698-39.258c11.041-21.53,7.87-47.322-8.845-73.169
		c4.538,0.862,8.86,1.298,12.907,1.298c26.274,0,39.318-17.613,53.127-36.26c7.582-10.238,15.422-20.824,25.882-29.057
		c2.916-2.296,5.627-3.46,8.058-3.46c10.442,0,18.323,23.439,18.332,54.519c0.01,37.919-11.286,76.31-32.896,76.322
		c-0.003,0-0.006,0-0.01,0c-13.319,0-30.054-14.458-48.397-41.813c-0.575-0.859-1.617-1.275-2.628-1.047
		c-1.008,0.229-1.772,1.053-1.922,2.076c-3.035,20.688,2.17,40.594,14.282,54.614c10.472,12.122,24.923,18.8,40.691,18.801
		c0.002,0,0.005,0,0.007,0c9.802,0,19.66-2.57,29.299-7.641c26.21-13.785,42.714-46.531,43.073-85.458
		C321.07,166.272,303.742,130.191,276.548,115.241z"/>
	<circle cx="202.014" cy="29.398" r="25.391"/>
</g>
<g>
</g>
<g>
</g>
<g>
</g>
<g>
</g>
<g>
</g>
<g>
</g>
<g>
</g>
<g>
</g>
<g>
</g>
<g>
</g>
<g>
</g>
<g>
</g>
<g>
</g>
<g>
</g>
<g>
</g>
</svg>
