<?xml version="1.0" encoding="UTF-8" standalone="no"?>
<!DOCTYPE svg PUBLIC "-//W3C//DTD SVG 1.1//EN" "http://www.w3.org/Graphics/SVG/1.1/DTD/svg11.dtd">
<svg version="1.1" xmlns="http://www.w3.org/2000/svg" xmlns:xlink="http://www.w3.org/1999/xlink" preserveAspectRatio="xMidYMid meet" viewBox="0 0 640 640" width="110" height="110"><defs><path d="M109.08 360.8C103.05 365.94 72.9 391.68 18.64 438C89.9 435.14 129.49 433.55 137.41 433.23C130.81 422.25 124.98 410.59 120.16 398.24C115.37 385.86 111.67 373.41 109.08 360.8Z" id="aDKqSSLFr"></path><path d="M118 573.92C178.3 535.81 211.8 514.64 218.5 510.4C207.3 504.22 196.43 496.95 186.1 488.72C175.71 480.4 166.24 471.41 157.7 461.81C152.4 476.76 139.17 514.13 118 573.92Z" id="b1BZLudNd5"></path><path d="M271.5 640C304.67 576.84 323.1 541.75 326.79 534.73C313.98 535.02 300.98 534.18 287.81 532.17C274.77 530.18 262.05 527.11 249.87 523.12C252.75 538.71 259.97 577.67 271.5 640Z" id="cvsTBsWVi"></path><path d="M360.77 531.99C365.92 538.02 391.67 568.16 438 622.41C435.17 551.14 433.59 511.54 433.28 503.62C422.25 510.24 410.59 516.02 398.24 520.84C385.91 525.66 373.37 529.35 360.77 531.99Z" id="f1k1D4Kfz"></path><path d="M372.51 0C339.32 63.16 320.87 98.25 317.18 105.27C330.01 104.98 343.04 105.82 356.16 107.83C369.23 109.8 381.96 112.89 394.15 116.92C391.26 101.33 384.05 62.36 372.51 0Z" id="groJf0Yro"></path><path d="M279.23 109.06C274.08 103.03 248.35 72.87 202.04 18.59C204.88 89.86 206.45 129.46 206.77 137.38C217.75 130.79 229.41 124.98 241.83 120.16C254.11 115.34 266.63 111.65 279.23 109.06Z" id="aIzgu44TU"></path><path d="M179.19 157.72C171.72 155.07 134.38 141.83 67.16 118C105.26 178.31 126.43 211.82 130.67 218.52C136.83 207.3 144.05 196.41 152.32 186.02C160.67 175.71 169.62 166.26 179.19 157.72Z" id="b3DdrLjZ3O"></path><path d="M116.92 249.87C109.13 251.31 70.16 258.5 0.02 271.46C63.17 304.65 98.25 323.1 105.27 326.79C105.03 313.96 105.84 300.93 107.81 287.86C109.82 274.74 112.87 262.05 116.92 249.87Z" id="bIzCBqHZM"></path><path d="M150.11 294.24C135.89 388.11 200.41 475.61 294.23 489.85C388.06 504.1 475.65 439.58 489.9 345.75C504.07 251.93 439.56 164.38 345.78 150.14C251.88 135.94 164.36 200.41 150.11 294.24Z" id="g1Y2qANcLg"></path><path d="M357.22 260.34C376.51 260.34 398.1 250.64 413.57 235.04C414.13 234.48 414.27 233.63 413.92 232.91C410.84 226.56 401.95 216.59 395.97 212.79C395.14 212.27 394.05 212.47 393.47 213.27C383.41 227.05 368.15 234.96 351.59 234.96C332.91 234.96 315.66 225.3 305.45 209.11C304.99 208.38 304.09 208.06 303.27 208.34C302.45 208.62 301.94 209.43 302.03 210.29C303.62 225.77 312.57 240.72 325.47 250.12C331.82 252.16 338.24 260.34 357.22 260.34Z" id="ah3GK8HbC"></path><path d="M460.84 482.33C468.31 484.97 505.66 498.19 572.89 522C534.8 461.71 513.64 428.22 509.4 421.53C503.19 432.7 496 443.57 487.68 453.98C479.38 464.34 470.41 473.74 460.84 482.33Z" id="b5jy0tvqsy"></path><path d="M523.08 390.13C530.87 388.69 569.84 381.5 639.98 368.54C576.83 335.35 541.75 316.9 534.73 313.21C535 326.04 534.16 339.07 532.19 352.19C530.18 365.26 527.11 377.95 523.08 390.13Z" id="fgERANuO2"></path><path d="M531.92 279.2C537.95 274.06 568.1 248.32 622.36 202C551.09 204.83 511.49 206.41 503.57 206.72C510.19 217.73 515.99 229.39 520.86 241.76C525.66 254.14 529.35 266.63 531.92 279.2Z" id="b22BrIMcRu"></path><path d="M522.02 67.08C461.72 105.19 428.23 126.36 421.53 130.6C432.77 136.78 443.64 144.05 454 152.28C464.34 160.58 473.79 169.57 482.33 179.19C487.62 164.24 500.85 126.87 522.02 67.08Z" id="a9OWcZrF8D"></path><path d="M396.53 262.38C373.83 262.38 359.23 282.17 345.1 301.31C332.43 318.48 320.46 334.69 304.04 334.7C304.03 334.7 304.03 334.7 304.03 334.7C297.78 334.7 291.19 332.4 283.97 327.69C309.05 312.42 320.64 290.95 315.06 269.75C309.02 246.79 284.89 230.75 256.38 230.75C247.13 230.75 237.68 232.41 228.29 235.67C227.57 235.92 227.03 236.52 226.86 237.25C225.77 241.77 217.08 277.94 215.99 282.46C215.79 283.32 216.11 284.22 216.81 284.75C217.52 285.28 218.47 285.35 219.24 284.92C240.54 273.05 256.05 270.56 265.31 270.56C282 270.56 289.61 278.11 289.61 285.12C289.61 295.98 273.21 306.97 241.87 307.32C241.87 307.21 241.87 306.67 241.87 305.7L236.7 305.7C236.7 307.37 236.7 308.3 236.7 308.49C236.56 308.78 236.49 309.09 236.49 309.42C236.49 310.46 239.79 321.95 242.54 330.13C249.07 349.53 252.13 351.16 254.49 351.16C254.78 351.16 255.06 351.12 255.33 351.05C260.39 349.68 265.76 348.96 270.88 348.96C279.95 348.96 301.58 351.41 306.45 374.05C308.68 384.43 306.82 393.42 300.9 400.74C289.83 414.45 267.47 419.31 251.69 419.31C216.73 419.31 193.86 396.49 179.69 347.48C179.38 346.39 178.28 345.71 177.17 345.91C176.05 346.11 175.26 347.11 175.33 348.25C177.45 381.14 187.95 407.89 205.71 425.6C220.85 440.69 241.06 449.01 262.6 449.01C290.49 449.01 315.55 435.29 326.43 414.06C336.26 394.89 333.44 371.93 318.56 348.91C322.6 349.68 326.45 350.07 330.05 350.07C353.44 350.07 365.05 334.39 377.35 317.79C384.1 308.67 391.08 299.25 400.39 291.92C402.99 289.88 405.4 288.84 407.56 288.84C416.86 288.84 423.88 309.71 423.89 337.38C423.89 371.13 413.84 405.31 394.6 405.32C394.6 405.32 394.59 405.32 394.59 405.32C382.73 405.32 367.83 392.45 351.5 368.1C350.99 367.33 350.06 366.96 349.16 367.17C348.27 367.37 347.59 368.1 347.45 369.02C344.75 387.43 349.38 405.16 360.17 417.64C369.49 428.43 382.36 434.37 396.39 434.38C396.4 434.38 396.4 434.38 396.4 434.38C405.13 434.38 413.9 432.09 422.48 427.57C445.82 415.3 460.51 386.15 460.83 351.49C461.17 315.09 445.74 282.97 421.53 269.66C412.74 264.83 404.33 262.38 396.53 262.38Z" id="ahdLJQDMh"></path><path d="M339.67 189.82C330.83 189.82 323.67 196.85 323.67 205.53C323.67 214.22 330.83 221.25 339.67 221.25C348.5 221.25 355.67 214.22 355.67 205.53C355.67 196.85 348.5 189.82 339.67 189.82Z" id="a5MkhOWXu"></path><path d="" id="daoWOP5zd"></path></defs><g><g><g><use xlink:href="#aDKqSSLFr" opacity="1" fill="#f36109" fill-opacity="1"></use><g><use xlink:href="#aDKqSSLFr" opacity="1" fill-opacity="0" stroke="#000000" stroke-width="1" stroke-opacity="0"></use></g></g><g><use xlink:href="#b1BZLudNd5" opacity="1" fill="#f36109" fill-opacity="1"></use><g><use xlink:href="#b1BZLudNd5" opacity="1" fill-opacity="0" stroke="#000000" stroke-width="1" stroke-opacity="0"></use></g></g><g><use xlink:href="#cvsTBsWVi" opacity="1" fill="#f36109" fill-opacity="1"></use><g><use xlink:href="#cvsTBsWVi" opacity="1" fill-opacity="0" stroke="#000000" stroke-width="1" stroke-opacity="0"></use></g></g><g><use xlink:href="#f1k1D4Kfz" opacity="1" fill="#f36109" fill-opacity="1"></use><g><use xlink:href="#f1k1D4Kfz" opacity="1" fill-opacity="0" stroke="#000000" stroke-width="1" stroke-opacity="0"></use></g></g><g><use xlink:href="#groJf0Yro" opacity="1" fill="#f36109" fill-opacity="1"></use><g><use xlink:href="#groJf0Yro" opacity="1" fill-opacity="0" stroke="#000000" stroke-width="1" stroke-opacity="0"></use></g></g><g><use xlink:href="#aIzgu44TU" opacity="1" fill="#f36109" fill-opacity="1"></use><g><use xlink:href="#aIzgu44TU" opacity="1" fill-opacity="0" stroke="#000000" stroke-width="1" stroke-opacity="0"></use></g></g><g><use xlink:href="#b3DdrLjZ3O" opacity="1" fill="#f36109" fill-opacity="1"></use><g><use xlink:href="#b3DdrLjZ3O" opacity="1" fill-opacity="0" stroke="#000000" stroke-width="1" stroke-opacity="0"></use></g></g><g><use xlink:href="#bIzCBqHZM" opacity="1" fill="#f36109" fill-opacity="1"></use><g><use xlink:href="#bIzCBqHZM" opacity="1" fill-opacity="0" stroke="#000000" stroke-width="1" stroke-opacity="0"></use></g></g><g><use xlink:href="#g1Y2qANcLg" opacity="1" fill="#f36109" fill-opacity="1"></use><g><use xlink:href="#g1Y2qANcLg" opacity="1" fill-opacity="0" stroke="#000000" stroke-width="1" stroke-opacity="0"></use></g></g><g><use xlink:href="#ah3GK8HbC" opacity="1" fill="#ffffff" fill-opacity="1"></use><g><use xlink:href="#ah3GK8HbC" opacity="1" fill-opacity="0" stroke="#000000" stroke-width="1" stroke-opacity="0"></use></g></g><g><use xlink:href="#b5jy0tvqsy" opacity="1" fill="#f36109" fill-opacity="1"></use><g><use xlink:href="#b5jy0tvqsy" opacity="1" fill-opacity="0" stroke="#000000" stroke-width="1" stroke-opacity="0"></use></g></g><g><use xlink:href="#fgERANuO2" opacity="1" fill="#f36109" fill-opacity="1"></use><g><use xlink:href="#fgERANuO2" opacity="1" fill-opacity="0" stroke="#000000" stroke-width="1" stroke-opacity="0"></use></g></g><g><use xlink:href="#b22BrIMcRu" opacity="1" fill="#f36109" fill-opacity="1"></use><g><use xlink:href="#b22BrIMcRu" opacity="1" fill-opacity="0" stroke="#000000" stroke-width="1" stroke-opacity="0"></use></g></g><g><use xlink:href="#a9OWcZrF8D" opacity="1" fill="#f36109" fill-opacity="1"></use><g><use xlink:href="#a9OWcZrF8D" opacity="1" fill-opacity="0" stroke="#000000" stroke-width="1" stroke-opacity="0"></use></g></g><g><use xlink:href="#ahdLJQDMh" opacity="1" fill="#ffffff" fill-opacity="1"></use><g><use xlink:href="#ahdLJQDMh" opacity="1" fill-opacity="0" stroke="#000000" stroke-width="1" stroke-opacity="0"></use></g></g><g><use xlink:href="#a5MkhOWXu" opacity="1" fill="#ffffff" fill-opacity="1"></use><g><use xlink:href="#a5MkhOWXu" opacity="1" fill-opacity="0" stroke="#000000" stroke-width="1" stroke-opacity="0"></use></g></g><g><g><use xlink:href="#daoWOP5zd" opacity="1" fill-opacity="0" stroke="#000000" stroke-width="1" stroke-opacity="1"></use></g></g></g></g></svg>