<?xml version="1.0" encoding="iso-8859-1"?>
<!-- Generator: Adobe Illustrator 18.1.1, SVG Export Plug-In . SVG Version: 6.00 Build 0)  -->
<svg version="1.1" id="Capa_1" xmlns="http://www.w3.org/2000/svg" xmlns:xlink="http://www.w3.org/1999/xlink" x="0px" y="0px"
	 viewBox="0 0 26.684 26.684" style="enable-background:new 0 0 26.684 26.684;" xml:space="preserve">
<g>
	<path style="fill:#030104;" d="M5.01,16.604c-0.2-0.516-0.354-1.035-0.462-1.561l-3.771,3.219l4.952-0.199
		C5.454,17.605,5.211,17.119,5.01,16.604z"/>
	<path style="fill:#030104;" d="M6.575,19.213L4.92,23.887l4.19-2.648c-0.467-0.258-0.92-0.561-1.351-0.904
		C7.326,19.988,6.931,19.613,6.575,19.213z"/>
	<path style="fill:#030104;" d="M21.675,10.08c0.2,0.516,0.354,1.037,0.461,1.561l3.771-3.219l-4.953,0.197
		C21.23,9.078,21.472,9.564,21.675,10.08z"/>
	<path style="fill:#030104;" d="M20.11,7.471l1.655-4.674l-4.19,2.648c0.469,0.258,0.922,0.561,1.354,0.904
		C19.36,6.695,19.754,7.07,20.11,7.471z"/>
	<path style="fill:#030104;" d="M16.268,4.875L15.366,0l-2.307,4.389c0.535-0.012,1.078,0.023,1.625,0.107
		C15.229,4.578,15.76,4.707,16.268,4.875z"/>
	<path style="fill:#030104;" d="M10.083,5.01c0.512-0.201,1.034-0.355,1.559-0.463L8.424,0.775l0.197,4.953
		C9.079,5.453,9.565,5.211,10.083,5.01z"/>
	<path style="fill:#030104;" d="M6.351,7.756c0.348-0.43,0.721-0.824,1.12-1.18L2.8,4.92l2.648,4.191
		C5.705,8.643,6.006,8.189,6.351,7.756z"/>
	<path style="fill:#030104;" d="M4.495,12.002c0.084-0.547,0.211-1.076,0.38-1.584l-4.874,0.9l4.388,2.307
		C4.379,13.09,4.413,12.547,4.495,12.002z"/>
	<path style="fill:#030104;" d="M10.418,21.811l0.902,4.873l2.305-4.389c-0.534,0.012-1.076-0.023-1.625-0.107
		C11.456,22.105,10.926,21.977,10.418,21.811z"/>
	<path style="fill:#030104;" d="M16.604,21.674c-0.514,0.201-1.037,0.355-1.562,0.465l3.22,3.77l-0.197-4.953
		C17.605,21.232,17.119,21.473,16.604,21.674z"/>
	<path style="fill:#030104;" d="M20.333,18.928c-0.346,0.432-0.72,0.824-1.119,1.182l4.672,1.654l-2.647-4.189
		C20.98,18.041,20.68,18.494,20.333,18.928z"/>
	<path style="fill:#030104;" d="M22.189,14.684c-0.084,0.545-0.212,1.074-0.38,1.582l4.874-0.9l-4.388-2.307
		C22.306,13.594,22.271,14.137,22.189,14.684z"/>
	<path style="fill:#030104;" d="M14.418,6.26c-3.915-0.592-7.564,2.096-8.158,6.008c-0.593,3.914,2.097,7.562,6.009,8.156
		s7.564-2.096,8.158-6.008C21.018,10.504,18.328,6.854,14.418,6.26z"/>
</g>


</svg>
