<svg>
	<symbol id="sun" 
		viewBox="0 0 26.684 26.684"
		xmlns="http://www.w3.org/2000/svg">
	  <g>
			<path d="M5.01,16.604c-0.2-0.516-0.354-1.035-0.462-1.561l-3.771,3.219l4.952-0.199
				C5.454,17.605,5.211,17.119,5.01,16.604z"/>
			<path d="M6.575,19.213L4.92,23.887l4.19-2.648c-0.467-0.258-0.92-0.561-1.351-0.904
				C7.326,19.988,6.931,19.613,6.575,19.213z"/>
			<path d="M21.675,10.08c0.2,0.516,0.354,1.037,0.461,1.561l3.771-3.219l-4.953,0.197
				C21.23,9.078,21.472,9.564,21.675,10.08z"/>
			<path d="M20.11,7.471l1.655-4.674l-4.19,2.648c0.469,0.258,0.922,0.561,1.354,0.904
				C19.36,6.695,19.754,7.07,20.11,7.471z"/>
			<path d="M16.268,4.875L15.366,0l-2.307,4.389c0.535-0.012,1.078,0.023,1.625,0.107
				C15.229,4.578,15.76,4.707,16.268,4.875z"/>
			<path d="M10.083,5.01c0.512-0.201,1.034-0.355,1.559-0.463L8.424,0.775l0.197,4.953
				C9.079,5.453,9.565,5.211,10.083,5.01z"/>
			<path d="M6.351,7.756c0.348-0.43,0.721-0.824,1.12-1.18L2.8,4.92l2.648,4.191
				C5.705,8.643,6.006,8.189,6.351,7.756z"/>
			<path d="M4.495,12.002c0.084-0.547,0.211-1.076,0.38-1.584l-4.874,0.9l4.388,2.307
				C4.379,13.09,4.413,12.547,4.495,12.002z"/>
			<path d="M10.418,21.811l0.902,4.873l2.305-4.389c-0.534,0.012-1.076-0.023-1.625-0.107
				C11.456,22.105,10.926,21.977,10.418,21.811z"/>
			<path d="M16.604,21.674c-0.514,0.201-1.037,0.355-1.562,0.465l3.22,3.77l-0.197-4.953
				C17.605,21.232,17.119,21.473,16.604,21.674z"/>
			<path d="M20.333,18.928c-0.346,0.432-0.72,0.824-1.119,1.182l4.672,1.654l-2.647-4.189
				C20.98,18.041,20.68,18.494,20.333,18.928z"/>
			<path d="M22.189,14.684c-0.084,0.545-0.212,1.074-0.38,1.582l4.874-0.9l-4.388-2.307
				C22.306,13.594,22.271,14.137,22.189,14.684z"/>
			<path d="M14.418,6.26c-3.915-0.592-7.564,2.096-8.158,6.008c-0.593,3.914,2.097,7.562,6.009,8.156
				s7.564-2.096,8.158-6.008C21.018,10.504,18.328,6.854,14.418,6.26z"/>
		</g>
	</symbol>
	<symbol id="clock" viewBox="0 0 512 512" xmlns="http://www.w3.org/2000/svg">
		<g>
			<path d="M256,0C114.844,0,0,114.844,0,256s114.844,256,256,256s256-114.844,256-256S397.156,0,256,0z M266.667,490.126v-31.46
				c0-5.896-4.771-10.667-10.667-10.667s-10.667,4.771-10.667,10.667v31.46c-120.868-5.473-217.987-102.591-223.46-223.46h31.46
				C59.229,266.667,64,261.896,64,256s-4.771-10.667-10.667-10.667h-31.46c5.473-120.868,102.591-217.987,223.46-223.46v31.46
				C245.333,59.229,250.104,64,256,64s10.667-4.771,10.667-10.667v-31.46c120.868,5.473,217.987,102.591,223.46,223.46h-31.46
				c-5.896,0-10.667,4.771-10.667,10.667s4.771,10.667,10.667,10.667h31.46C484.654,387.535,387.535,484.654,266.667,490.126z"/>
			<path d="M276.281,261.198c0.441-1.707,1.052-3.355,1.052-5.198c0-4.465-1.698-8.382-4.053-11.811l67.053-143.678
				c2.49-5.333,0.188-11.688-5.156-14.177C329.854,83.885,323.5,86.167,321,91.49l-67.005,143.583
				c-10.776,1.063-19.328,9.878-19.328,20.927c0,11.76,9.573,21.333,21.333,21.333c1.842,0,3.491-0.611,5.198-1.052l83.26,83.26
				c2.083,2.083,4.813,3.125,7.542,3.125c2.729,0,5.458-1.042,7.542-3.125c4.167-4.167,4.167-10.917,0-15.083L276.281,261.198z"/>
		</g>
	</symbol>
	<symbol id="phone" viewBox="0 0 480.56 480.56" xmlns="http://www.w3.org/2000/svg">
		<g>
			<path d="M365.354,317.9c-15.7-15.5-35.3-15.5-50.9,0c-11.9,11.8-23.8,23.6-35.5,35.6c-3.2,3.3-5.9,4-9.8,1.8
				c-7.7-4.2-15.9-7.6-23.3-12.2c-34.5-21.7-63.4-49.6-89-81c-12.7-15.6-24-32.3-31.9-51.1c-1.6-3.8-1.3-6.3,1.8-9.4
				c11.9-11.5,23.5-23.3,35.2-35.1c16.3-16.4,16.3-35.6-0.1-52.1c-9.3-9.4-18.6-18.6-27.9-28c-9.6-9.6-19.1-19.3-28.8-28.8
				c-15.7-15.3-35.3-15.3-50.9,0.1c-12,11.8-23.5,23.9-35.7,35.5c-11.3,10.7-17,23.8-18.2,39.1c-1.9,24.9,4.2,48.4,12.8,71.3
				c17.6,47.4,44.4,89.5,76.9,128.1c43.9,52.2,96.3,93.5,157.6,123.3c27.6,13.4,56.2,23.7,87.3,25.4c21.4,1.2,40-4.2,54.9-20.9
				c10.2-11.4,21.7-21.8,32.5-32.7c16-16.2,16.1-35.8,0.2-51.8C403.554,355.9,384.454,336.9,365.354,317.9z"/>
			<path d="M346.254,238.2l36.9-6.3c-5.8-33.9-21.8-64.6-46.1-89c-25.7-25.7-58.2-41.9-94-46.9l-5.2,37.1
				c27.7,3.9,52.9,16.4,72.8,36.3C329.454,188.2,341.754,212,346.254,238.2z"/>
			<path d="M403.954,77.8c-42.6-42.6-96.5-69.5-156-77.8l-5.2,37.1c51.4,7.2,98,30.5,134.8,67.2c34.9,34.9,57.8,79,66.1,127.5
				l36.9-6.3C470.854,169.3,444.354,118.3,403.954,77.8z"/>
		</g>
	</symbol>
	<symbol id="mail" viewBox="-17 -101 560 560" xmlns="http://www.w3.org/2000/svg">
		<path d="m462.5-5.582031h-400c-34.511719.011719-62.484375 27.988281-62.5 62.5v233.371093c.015625 34.511719 27.988281 62.492188 62.5 62.5h400c34.511719-.007812 62.484375-27.988281 62.5-62.5v-233.371093c-.015625-34.511719-27.988281-62.488281-62.5-62.5zm-400 25h400c18.003906.046875 33.453125 12.824219 36.875 30.496093l-236.875 132.003907-236.875-132.003907c3.421875-17.671874 18.871094-30.449218 36.875-30.496093zm400 308.25h-400c-20.683594-.0625-37.441406-16.816407-37.5-37.5v-212l231.375 128.996093c1.875 1.03125 3.980469 1.59375 6.125 1.628907 2.152344.023437 4.265625-.539063 6.125-1.628907l231.375-128.996093v212c-.015625 20.703125-16.796875 37.480469-37.5 37.5zm0 0"/>
	</symbol>
	<symbol id="pin" viewBox="0 0 512 512" xmlns="http://www.w3.org/2000/svg">
		<path d="M256,0C161.896,0,85.333,76.563,85.333,170.667c0,28.25,7.063,56.26,20.49,81.104L246.667,506.5
			c1.875,3.396,5.448,5.5,9.333,5.5s7.458-2.104,9.333-5.5l140.896-254.813c13.375-24.76,20.438-52.771,20.438-81.021
			C426.667,76.563,350.104,0,256,0z M256,256c-47.052,0-85.333-38.281-85.333-85.333c0-47.052,38.281-85.333,85.333-85.333
			s85.333,38.281,85.333,85.333C341.333,217.719,303.052,256,256,256z"/>
	</symbol>
	<symbol id="instagram" viewBox="0 0 512 512" xmlns="http://www.w3.org/2000/svg">
		<path d="m256 120.5c-74.714844 0-135.5 60.785156-135.5 135.5s60.785156 135.5 135.5 135.5 135.5-60.785156 135.5-135.5-60.785156-135.5-135.5-135.5zm0 241c-58.171875 0-105.5-47.328125-105.5-105.5s47.328125-105.5 105.5-105.5c58.175781 0 105.5 47.328125 105.5 105.5s-47.324219 105.5-105.5 105.5zm0 0"/><path d="m460.410156 51.589844c-33.265625-33.269532-77.332031-51.589844-124.074218-51.589844h-160.671876c-46.742187 0-90.808593 18.320312-124.074218 51.589844-33.269532 33.265625-51.589844 77.332031-51.589844 124.074218v160.667969c0 46.746094 18.320312 90.8125 51.589844 124.078125 33.265625 33.269532 77.332031 51.589844 124.074218 51.589844h160.671876c46.742187 0 90.808593-18.320312 124.074218-51.589844 33.269532-33.265625 51.589844-77.332031 51.589844-124.078125v-160.667969c0-46.742187-18.320312-90.808593-51.589844-124.074218zm21.589844 284.742187c0 80.320313-65.347656 145.667969-145.664062 145.667969h-160.671876c-80.316406 0-145.664062-65.347656-145.664062-145.667969v-160.667969c0-80.316406 65.347656-145.664062 145.664062-145.664062h160.671876c80.316406 0 145.664062 65.347656 145.664062 145.664062zm0 0"/><path d="m395.511719 101.488281c-3.953125 0-7.820313 1.609375-10.613281 4.402344-2.789063 2.789063-4.386719 6.660156-4.386719 10.597656 0 3.949219 1.597656 7.820313 4.386719 10.609375 2.792968 2.792969 6.660156 4.390625 10.613281 4.390625 3.9375 0 7.808593-1.597656 10.597656-4.390625 2.789063-2.789062 4.402344-6.660156 4.402344-10.609375 0-3.9375-1.613281-7.808593-4.402344-10.597656s-6.660156-4.402344-10.597656-4.402344zm0 0"/>
	</symbol>
	<symbol id="facebook" viewBox="0 0 155.139 155.139" xmlns="http://www.w3.org/2000/svg">
		<g>
			<path id="f_1_" d="M89.584,155.139V84.378h23.742l3.562-27.585H89.584V39.184
				c0-7.984,2.208-13.425,13.67-13.425l14.595-0.006V1.08C115.325,0.752,106.661,0,96.577,0C75.52,0,61.104,12.853,61.104,36.452
				v20.341H37.29v27.585h23.814v70.761H89.584z"/>
		</g>
	</symbol>
	<symbol id="om" viewBox="0 0 320.699 320.699" xmlns="http://www.w3.org/2000/svg">
		<g>
			<path d="M168.475,87.383c0,0,17.145,13.715,42.625,13.715c25.896,0,54.882-13.015,75.648-33.965
				c0.748-0.753,0.937-1.896,0.474-2.852c-4.143-8.531-16.079-21.91-24.098-27.012c-1.113-0.707-2.584-0.429-3.361,0.637
				c-13.501,18.509-33.991,29.124-56.217,29.125c-25.089,0.002-48.245-12.974-61.943-34.709c-0.62-0.983-1.835-1.407-2.931-1.03
				c-1.098,0.38-1.79,1.465-1.671,2.619C139.14,54.694,151.153,74.755,168.475,87.383z"/>
			<path d="M276.548,115.241c-9.87-5.427-19.316-8.178-28.077-8.178c-25.498,0-41.905,22.23-57.773,43.729
				c-14.234,19.284-27.678,37.499-46.124,37.505c-0.003,0-0.006,0-0.009,0c-7.024,0-14.423-2.579-22.529-7.869
				c28.166-17.16,41.189-41.272,34.924-65.084c-6.786-25.794-33.893-43.808-65.918-43.808c-10.389,0-21.004,1.86-31.551,5.529
				c-0.804,0.28-1.41,0.95-1.609,1.777l-12.201,50.773c-0.232,0.965,0.129,1.976,0.92,2.576c0.791,0.6,1.862,0.676,2.728,0.191
				c23.924-13.331,41.342-16.129,51.741-16.129c18.756,0,27.299,8.477,27.3,16.354c0.001,12.199-18.418,24.539-53.624,24.938v-1.821
				h-5.812v3.129c-0.15,0.326-0.237,0.681-0.237,1.046c0,1.17,3.714,14.076,6.802,23.26c7.331,21.8,10.773,23.626,13.424,23.626
				c0.319,0,0.637-0.042,0.946-0.125c5.678-1.533,11.715-2.344,17.46-2.344c10.19,0,34.481,2.745,39.953,28.175
				c2.511,11.668,0.413,21.758-6.233,29.986c-12.435,15.396-37.548,20.858-55.275,20.858c-39.264,0.001-64.961-25.635-80.871-80.678
				c-0.354-1.225-1.579-1.989-2.831-1.768c-1.257,0.22-2.147,1.351-2.065,2.624c2.376,36.951,14.176,66.994,34.123,86.881
				c17.008,16.957,39.703,26.296,63.904,26.296c31.326,0,59.469-15.41,71.698-39.258c11.041-21.53,7.87-47.322-8.845-73.169
				c4.538,0.862,8.86,1.298,12.907,1.298c26.274,0,39.318-17.613,53.127-36.26c7.582-10.238,15.422-20.824,25.882-29.057
				c2.916-2.296,5.627-3.46,8.058-3.46c10.442,0,18.323,23.439,18.332,54.519c0.01,37.919-11.286,76.31-32.896,76.322
				c-0.003,0-0.006,0-0.01,0c-13.319,0-30.054-14.458-48.397-41.813c-0.575-0.859-1.617-1.275-2.628-1.047
				c-1.008,0.229-1.772,1.053-1.922,2.076c-3.035,20.688,2.17,40.594,14.282,54.614c10.472,12.122,24.923,18.8,40.691,18.801
				c0.002,0,0.005,0,0.007,0c9.802,0,19.66-2.57,29.299-7.641c26.21-13.785,42.714-46.531,43.073-85.458
				C321.07,166.272,303.742,130.191,276.548,115.241z"/>
			<circle cx="202.014" cy="29.398" r="25.391"/>
		</g>
	</symbol>
	<symbol id="login" viewBox="0 0 512 512"  xmlns="http://www.w3.org/2000/svg">
		<g>
			<path d="M131.5,472H60.693c-8.538,0-13.689-4.765-15.999-7.606c-3.988-4.906-5.533-11.29-4.236-17.519
				c20.769-99.761,108.809-172.616,210.445-174.98c1.693,0.063,3.39,0.105,5.097,0.105c1.722,0,3.434-0.043,5.142-0.107
				c24.853,0.567,49.129,5.24,72.236,13.917c10.34,3.885,21.871-1.352,25.754-11.693c3.883-10.34-1.352-21.871-11.693-25.754
				c-3.311-1.244-6.645-2.408-9.995-3.512C370.545,220.021,392,180.469,392,136C392,61.01,330.991,0,256,0
				c-74.991,0-136,61.01-136,136c0,44.509,21.492,84.092,54.643,108.918c-30.371,9.998-58.871,25.546-83.813,46.062
				c-45.732,37.617-77.529,90.086-89.532,147.743c-3.762,18.066,0.744,36.622,12.363,50.908C25.221,503.847,42.364,512,60.693,512
				H131.5c11.046,0,20-8.954,20-20C151.5,480.954,142.546,472,131.5,472z M160,136c0-52.935,43.065-96,96-96s96,43.065,96,96
				c0,51.367-40.554,93.438-91.326,95.885c-1.557-0.028-3.114-0.052-4.674-0.052c-1.564,0-3.127,0.023-4.689,0.051
				C200.546,229.43,160,187.362,160,136z"/>
			<path d="M496.689,344.607c-8.561-19.15-27.845-31.558-49.176-31.607h-62.372c-0.045,0-0.087,0-0.133,0
				c-22.5,0-42.13,13.26-50.029,33.807c-1.051,2.734-2.336,6.178-3.677,10.193H200.356c-5.407,0-10.583,2.189-14.35,6.068
				l-34.356,35.388c-7.567,7.794-7.529,20.203,0.085,27.95l35,35.612c3.76,3.826,8.9,5.981,14.264,5.981h65c11.046,0,20-8.954,20-20
				c0-11.046-8.954-20-20-20h-56.614l-15.428-15.698L208.814,397h137.491c9.214,0,17.235-6.295,19.426-15.244
				c1.618-6.607,3.648-12.959,6.584-20.596c1.936-5.036,6.798-8.16,12.741-8.16c0.013,0,0.026,0,0.039,0h62.371
				c5.656,0.013,10.524,3.053,12.705,7.932c5.369,12.012,11.78,30.608,11.828,50.986c0.048,20.529-6.356,39.551-11.739,51.894
				c-2.17,4.978-7.079,8.188-12.56,8.188c-0.011,0-0.022,0-0.033,0h-63.125c-5.533-0.013-10.716-3.573-12.896-8.858
				c-2.339-5.671-4.366-12.146-6.197-19.797c-2.571-10.742-13.367-17.366-24.105-14.796c-10.743,2.571-17.367,13.364-14.796,24.106
				c2.321,9.699,4.978,18.118,8.121,25.738c8.399,20.364,27.939,33.555,49.827,33.606h63.125c0.043,0,0.083,0,0.126,0
				c21.351-0.001,40.647-12.63,49.18-32.201c6.912-15.851,15.137-40.511,15.072-67.975
				C511.935,384.434,503.638,360.153,496.689,344.607z"/>
			<circle cx="431" cy="412" r="20"/>
		</g>
	</symbol>
	<symbol id="timetable" viewBox="0 0 512 512" xmlns="http://www.w3.org/2000/svg">
		<path d="m482 292.25v-246.25c0-8.285156-6.714844-15-15-15h-76v-16c0-8.285156-6.714844-15-15-15s-15 6.714844-15 15v16h-60v-16c0-8.285156-6.714844-15-15-15s-15 6.714844-15 15v16h-60v-16c0-8.285156-6.714844-15-15-15s-15 6.714844-15 15v16h-60v-16c0-8.285156-6.714844-15-15-15s-15 6.714844-15 15v16h-76c-8.285156 0-15 6.714844-15 15v391c0 8.285156 6.714844 15 15 15h249.804688c24.25 36.152344 65.488281 60 112.195312 60 74.4375 0 135-60.5625 135-135 0-32.070312-11.25-61.5625-30-84.75zm-391-231.25v15c0 8.285156 6.714844 15 15 15s15-6.714844 15-15v-15h60v15c0 8.285156 6.714844 15 15 15s15-6.714844 15-15v-15h60v15c0 8.285156 6.714844 15 15 15s15-6.714844 15-15v-15h60v15c0 8.285156 6.714844 15 15 15s15-6.714844 15-15v-15h61v60h-422v-60zm-61 361v-271h422v113.804688c-21.464844-14.394532-47.269531-22.804688-75-22.804688-47.398438 0-89.164062 24.558594-113.257812 61.613281-2.027344-1.023437-4.3125-1.613281-6.742188-1.613281h-30c-8.285156 0-15 6.714844-15 15s6.714844 15 15 15h22.722656c-3.386718 9.554688-5.730468 19.601562-6.882812 30h-15.839844c-8.285156 0-15 6.714844-15 15s6.714844 15 15 15h15.839844c1.152344 10.398438 3.492187 20.445312 6.882812 30zm347 60c-57.898438 0-105-47.101562-105-105s47.101562-105 105-105 105 47.101562 105 105-47.101562 105-105 105zm0 0"/><path d="m437 362h-45v-45c0-8.285156-6.714844-15-15-15s-15 6.714844-15 15v60c0 8.285156 6.714844 15 15 15h60c8.285156 0 15-6.714844 15-15s-6.714844-15-15-15zm0 0"/><path d="m136 182h-30c-8.285156 0-15 6.714844-15 15s6.714844 15 15 15h30c8.285156 0 15-6.714844 15-15s-6.714844-15-15-15zm0 0"/><path d="m136 242h-30c-8.285156 0-15 6.714844-15 15s6.714844 15 15 15h30c8.285156 0 15-6.714844 15-15s-6.714844-15-15-15zm0 0"/><path d="m136 302h-30c-8.285156 0-15 6.714844-15 15s6.714844 15 15 15h30c8.285156 0 15-6.714844 15-15s-6.714844-15-15-15zm0 0"/><path d="m227 212h30c8.285156 0 15-6.714844 15-15s-6.714844-15-15-15h-30c-8.285156 0-15 6.714844-15 15s6.714844 15 15 15zm0 0"/><path d="m227 272h30c8.285156 0 15-6.714844 15-15s-6.714844-15-15-15h-30c-8.285156 0-15 6.714844-15 15s6.714844 15 15 15zm0 0"/><path d="m136 362h-30c-8.285156 0-15 6.714844-15 15s6.714844 15 15 15h30c8.285156 0 15-6.714844 15-15s-6.714844-15-15-15zm0 0"/><path d="m347 212h30c8.285156 0 15-6.714844 15-15s-6.714844-15-15-15h-30c-8.285156 0-15 6.714844-15 15s6.714844 15 15 15zm0 0"/>
    </symbol>
</svg>
